<svg width="100" height="100" viewBox="0 0 100 100" fill="none" xmlns="http://www.w3.org/2000/svg">
<rect x="12" y="12" width="76" height="76" rx="12" fill="#FFE0CC"/>
<g clip-path="url(#clip0_67_2361)">
<path d="M66.6197 99.8507L94.3832 83.7311C94.5696 83.6316 94.7255 83.4829 94.8343 83.301C94.9431 83.1191 95.0005 82.9109 95.0005 82.6986C95.0005 82.4864 94.9431 82.2782 94.8343 82.0963C94.7255 81.9144 94.5696 81.7657 94.3832 81.6662L66.6168 65.5466C66.4252 65.449 66.2134 65.3981 65.9986 65.3981C65.7837 65.3981 65.5719 65.449 65.3803 65.5466L37.6168 81.6547C37.4304 81.7542 37.2744 81.9029 37.1657 82.0848C37.0569 82.2667 36.9995 82.4749 36.9995 82.6872C36.9995 82.8994 37.0569 83.1076 37.1657 83.2895C37.2744 83.4714 37.4304 83.6201 37.6168 83.7196L65.3803 99.8392C65.5715 99.9387 65.7833 99.9915 65.9986 99.9935C66.2139 99.9955 66.4266 99.9466 66.6197 99.8507Z" fill="#FFE0CC"/>
<path d="M66.6197 99.8507L94.3832 83.7311C94.5696 83.6316 94.7255 83.4829 94.8343 83.301C94.9431 83.1191 95.0005 82.9109 95.0005 82.6986C95.0005 82.4864 94.9431 82.2782 94.8343 82.0963C94.7255 81.9144 94.5696 81.7657 94.3832 81.6662L66.6168 65.5466C66.4252 65.449 66.2134 65.3981 65.9986 65.3981C65.7837 65.3981 65.5719 65.449 65.3803 65.5466L37.6168 81.6547C37.4304 81.7542 37.2744 81.9029 37.1657 82.0848C37.0569 82.2667 36.9995 82.4749 36.9995 82.6872C36.9995 82.8994 37.0569 83.1076 37.1657 83.2895C37.2744 83.4714 37.4304 83.6201 37.6168 83.7196L65.3803 99.8392C65.5715 99.9387 65.7833 99.9915 65.9986 99.9935C66.2139 99.9955 66.4266 99.9466 66.6197 99.8507Z" fill="#FFE0CC"/>
<path d="M66.6197 99.8507L94.3832 83.7311C94.5696 83.6316 94.7255 83.4829 94.8343 83.301C94.9431 83.1191 95.0005 82.9109 95.0005 82.6986C95.0005 82.4864 94.9431 82.2782 94.8343 82.0963C94.7255 81.9144 94.5696 81.7657 94.3832 81.6662L66.6168 65.5466C66.4252 65.449 66.2134 65.3981 65.9986 65.3981C65.7837 65.3981 65.5719 65.449 65.3803 65.5466L37.6168 81.6547C37.4304 81.7542 37.2744 81.9029 37.1657 82.0848C37.0569 82.2667 36.9995 82.4749 36.9995 82.6872C36.9995 82.8994 37.0569 83.1076 37.1657 83.2895C37.2744 83.4714 37.4304 83.6201 37.6168 83.7196L65.3803 99.8392C65.5715 99.9387 65.7833 99.9915 65.9986 99.9935C66.2139 99.9955 66.4266 99.9466 66.6197 99.8507Z" fill="#FFE0CC"/>
<path opacity="0.2" d="M66.6197 99.8507L94.3832 83.7311C94.5696 83.6316 94.7255 83.4829 94.8343 83.301C94.9431 83.1191 95.0005 82.9109 95.0005 82.6986C95.0005 82.4864 94.9431 82.2782 94.8343 82.0963C94.7255 81.9144 94.5696 81.7657 94.3832 81.6662L66.6168 65.5466C66.4252 65.449 66.2134 65.3981 65.9986 65.3981C65.7837 65.3981 65.5719 65.449 65.3803 65.5466L37.6168 81.6547C37.4304 81.7542 37.2744 81.9029 37.1657 82.0848C37.0569 82.2667 36.9995 82.4749 36.9995 82.6872C36.9995 82.8994 37.0569 83.1076 37.1657 83.2895C37.2744 83.4714 37.4304 83.6201 37.6168 83.7196L65.3803 99.8392C65.5715 99.9387 65.7833 99.9915 65.9986 99.9935C66.2139 99.9955 66.4266 99.9466 66.6197 99.8507Z" fill="url(#paint0_linear_67_2361)"/>
<path d="M37.6168 82.3842L65.3803 98.5038C65.5725 98.6015 65.7847 98.6524 66 98.6524C66.2153 98.6524 66.4276 98.6015 66.6197 98.5038L94.3832 82.3842C94.4578 82.3587 94.5225 82.3104 94.5684 82.246C94.6143 82.1816 94.639 82.1044 94.639 82.0252C94.639 81.946 94.6143 81.8688 94.5684 81.8044C94.5225 81.74 94.4578 81.6917 94.3832 81.6662L66.6168 65.5466C66.4252 65.449 66.2134 65.3981 65.9986 65.3981C65.7838 65.3981 65.5719 65.449 65.3803 65.5466L37.6168 81.6547C37.5379 81.6772 37.4684 81.725 37.4189 81.7908C37.3694 81.8567 37.3427 81.9369 37.3427 82.0195C37.3427 82.102 37.3694 82.1822 37.4189 82.2481C37.4684 82.3139 37.5379 82.3617 37.6168 82.3842Z" fill="url(#paint1_linear_67_2361)"/>
<path d="M70.6406 92.8003L90.3594 81.3503V33.5314L70.6406 44.9814V92.8003Z" fill="url(#paint2_linear_67_2361)"/>
<path d="M66 96.169V47.6752L41.6406 33.5314V82.0252L66 96.169Z" fill="url(#paint3_linear_67_2361)"/>
<path d="M66 75.9627L41.6406 61.8189V60.472L39.3188 61.8189L66 77.3096V75.9627Z" fill="#FFE0CC"/>
<path opacity="0.5" d="M66 75.9627L41.6406 61.8189V60.472L39.3188 61.8189L66 77.3096V75.9627Z" fill="#FF6200"/>
<path d="M39.3188 61.819L66 77.3097V78.6565L39.3188 63.1659V61.819Z" fill="#FFE0CC"/>
<path d="M66 75.9628L70.6406 73.269L71.8 73.941L66 77.3097V75.9628Z" fill="#FFE0CC"/>
<path opacity="0.5" d="M66 75.9628L70.6406 73.269L71.8 73.941L66 77.3097V75.9628Z" fill="#FF6200"/>
<path d="M66 78.6565L71.8 75.2907V73.941L66 77.3096V78.6565Z" fill="#FFE0CC"/>
<path opacity="0.2" d="M66 78.6565L71.8 75.2907V73.941L66 77.3096V78.6565Z" fill="url(#paint4_linear_67_2361)"/>
<path d="M66 47.6752L70.6406 44.9814V73.269L66 75.9627V47.6752Z" fill="url(#paint5_linear_67_2361)"/>
<path d="M66 78.6565L70.6406 75.9627V93.4752L66 96.1689V78.6565Z" fill="url(#paint6_linear_67_2361)"/>
<path d="M63.6812 71.9221V65.1876L59.0406 62.4938V69.2283L63.6812 71.9221Z" fill="#FFE0CC"/>
<path opacity="0.5" d="M63.6812 71.9221V65.1876L59.0406 62.4938V69.2283L63.6812 71.9221Z" fill="#FF6200"/>
<path d="M59.0406 69.2283L60.2 68.5534V63.1658L59.0406 62.4938V69.2283Z" fill="url(#paint7_linear_67_2361)"/>
<path d="M63.6812 70.5752L60.2 68.5534L59.0406 69.2283L63.6812 71.9221V70.5752Z" fill="url(#paint8_linear_67_2361)"/>
<path d="M56.7189 67.8814V61.1469L50.9189 57.7783V64.5127L56.7189 67.8814Z" fill="#FFE0CC"/>
<path opacity="0.5" d="M56.7189 67.8814V61.1469L50.9189 57.7783V64.5127L56.7189 67.8814Z" fill="#FF6200"/>
<path d="M52.0812 63.8407V58.4503L50.9189 57.7783V64.5127L52.0812 63.8407Z" fill="url(#paint9_linear_67_2361)"/>
<path d="M56.7217 66.5345L56.7189 67.8814L50.9189 64.5127L52.0812 63.8407L56.7217 66.5345Z" fill="url(#paint10_linear_67_2361)"/>
<path d="M73.5391 86.4018V79.6674L79.3391 76.2987V83.0332L73.5391 86.4018Z" fill="#FFE0CC"/>
<path d="M78.1797 82.3612V76.9736L79.3391 76.2987V83.0332L78.1797 82.3612Z" fill="url(#paint11_linear_67_2361)"/>
<path d="M73.5391 85.055V86.4019L79.3391 83.0332L78.1797 82.3612L73.5391 85.055Z" fill="url(#paint12_linear_67_2361)"/>
<path d="M73.5391 75.1787V68.4414L79.3391 65.0756V71.8101L73.5391 75.1787Z" fill="#FFE0CC"/>
<path d="M78.1797 71.1352V65.7476L79.3391 65.0756V71.8101L78.1797 71.1352Z" fill="url(#paint13_linear_67_2361)"/>
<path d="M73.5391 73.829V75.1787L79.3391 71.8101L78.1797 71.1352L73.5391 73.829Z" fill="url(#paint14_linear_67_2361)"/>
<path d="M73.5391 63.9527V57.2183L79.3391 53.8496V60.5841L73.5391 63.9527Z" fill="#FFE0CC"/>
<path d="M78.1797 59.9121V54.5216L79.3391 53.8496V60.5841L78.1797 59.9121Z" fill="url(#paint15_linear_67_2361)"/>
<path d="M73.5391 62.6058V63.9527L79.3391 60.5841L78.1797 59.912L73.5391 62.6058Z" fill="url(#paint16_linear_67_2361)"/>
<path d="M73.5391 52.7267V45.9923L79.3391 42.6236V49.3581L73.5391 52.7267Z" fill="#FFE0CC"/>
<path d="M78.1797 48.686V43.2985L79.3391 42.6236V49.3581L78.1797 48.686Z" fill="url(#paint17_linear_67_2361)"/>
<path d="M73.5391 51.3798V52.7267L79.3391 49.358L78.1797 48.686L73.5391 51.3798Z" fill="url(#paint18_linear_67_2361)"/>
<path d="M81.7894 81.6145V74.88L87.5894 71.5114V78.2487L81.7894 81.6145Z" fill="#FFE0CC"/>
<path d="M86.4271 77.5738V72.1862L87.5893 71.5114V78.2487L86.4271 77.5738Z" fill="url(#paint19_linear_67_2361)"/>
<path d="M81.7865 80.2676L81.7894 81.6145L87.5894 78.2487L86.4271 77.5739L81.7865 80.2676Z" fill="url(#paint20_linear_67_2361)"/>
<path d="M81.7894 70.3885V63.6541L87.5894 60.2883V67.0227L81.7894 70.3885Z" fill="#FFE0CC"/>
<path d="M86.4271 66.3478V60.9603L87.5893 60.2883V67.0227L86.4271 66.3478Z" fill="url(#paint21_linear_67_2361)"/>
<path d="M81.7865 69.0445L81.7894 70.3885L87.5894 67.0227L86.4271 66.3478L81.7865 69.0445Z" fill="url(#paint22_linear_67_2361)"/>
<path d="M81.7894 59.1654V52.4309L87.5894 49.0623V55.7967L81.7894 59.1654Z" fill="#FFE0CC"/>
<path d="M86.4271 55.1247V49.7371L87.5893 49.0623V55.7967L86.4271 55.1247Z" fill="url(#paint23_linear_67_2361)"/>
<path d="M81.7865 57.8185L81.7894 59.1654L87.5894 55.7967L86.4271 55.1247L81.7865 57.8185Z" fill="url(#paint24_linear_67_2361)"/>
<path d="M81.7894 47.9394V41.2049L87.5894 37.8362V44.5736L81.7894 47.9394Z" fill="#FFE0CC"/>
<path d="M86.4271 43.8987V38.5111L87.5893 37.8362V44.5736L86.4271 43.8987Z" fill="url(#paint25_linear_67_2361)"/>
<path d="M81.7865 46.5925L81.7894 47.9394L87.5894 44.5736L86.4271 43.8987L81.7865 46.5925Z" fill="url(#paint26_linear_67_2361)"/>
<path d="M48.6 63.1658V56.4314L43.9594 53.7376V60.4721L48.6 63.1658Z" fill="#FFE0CC"/>
<path opacity="0.5" d="M48.6 63.1658V56.4314L43.9594 53.7376V60.4721L48.6 63.1658Z" fill="#FF6200"/>
<path d="M45.1188 59.7972L43.9594 60.4721V53.7376L45.1188 54.4096V59.7972Z" fill="url(#paint27_linear_67_2361)"/>
<path d="M48.6 61.819L45.1188 59.7972L43.9594 60.4721L48.6 63.1658V61.819Z" fill="url(#paint28_linear_67_2361)"/>
<path d="M50.9189 76.0288C50.9189 74.1276 52.2182 73.3379 53.8203 74.2683C55.4224 75.1988 56.7189 77.4934 56.7189 79.3974V90.7814L50.9189 87.4127V76.0288Z" fill="url(#paint29_linear_67_2361)"/>
<path d="M56.7189 79.3974C56.7189 77.4934 55.4224 75.1959 53.8203 74.2683C53.4124 74.0084 52.9381 73.8737 52.4553 73.8806C52.1903 74.3255 52.0602 74.8386 52.0812 75.3568V86.7407L56.7189 89.4345V79.3974Z" fill="url(#paint30_linear_67_2361)"/>
<path d="M56.7189 79.3974C56.7189 77.4934 55.4224 75.1959 53.8203 74.2683C53.4124 74.0084 52.9381 73.8737 52.4553 73.8806C52.1903 74.3255 52.0602 74.8386 52.0812 75.3568V86.7407L56.7189 89.4345V79.3974Z" fill="#FFE0CC"/>
<path opacity="0.5" d="M56.7189 79.3974C56.7189 77.4934 55.4224 75.1959 53.8203 74.2683C53.4124 74.0084 52.9381 73.8737 52.4553 73.8806C52.1903 74.3255 52.0602 74.8386 52.0812 75.3568V86.7407L56.7189 89.4345V79.3974Z" fill="#FF6200"/>
<path d="M54.657 74.903C54.4789 74.7342 54.288 74.5796 54.0859 74.4407V77.4676L52.0869 76.3016V76.9995L54.0859 78.1683V86.8958L54.657 87.2261V78.4957L56.7188 79.6933V79.4061C56.7188 79.2682 56.7188 79.1189 56.6989 78.9897L54.657 77.8065V74.903Z" fill="url(#paint31_linear_67_2361)"/>
<path d="M66 47.6751V43.6345L40.4811 28.8158V32.8593L66 47.6751Z" fill="#FFE0CC"/>
<path opacity="0.5" d="M66 47.6751V43.6345L40.4811 28.8158V32.8593L66 47.6751Z" fill="#FF6200"/>
<path d="M66 47.6751V43.6345L91.5217 28.8158V32.8593L66 47.6751Z" fill="#FFE0CC"/>
<path opacity="0.2" d="M66 47.6751V43.6345L91.5217 28.8158V32.8593L66 47.6751Z" fill="url(#paint32_linear_67_2361)"/>
<path d="M43.9594 40.4439C43.9594 38.8586 44.9989 38.1751 46.2783 38.9189C47.5576 39.6627 48.6 41.5524 48.6 43.1376V53.7376L43.9594 51.0438V40.4439Z" fill="url(#paint33_linear_67_2361)"/>
<path d="M46.2783 38.916C46.0023 38.7497 45.6911 38.6513 45.3701 38.6288C45.1935 38.9851 45.1072 39.3797 45.1188 39.7776V50.3775L48.6 52.3878V43.1348C48.6 41.5495 47.5605 39.6598 46.2783 38.916Z" fill="#FFE0CC"/>
<path opacity="0.5" d="M46.2783 38.916C46.0023 38.7497 45.6911 38.6513 45.3701 38.6288C45.1935 38.9851 45.1072 39.3797 45.1188 39.7776V50.3775L48.6 52.3878V43.1348C48.6 41.5495 47.5605 39.6598 46.2783 38.916Z" fill="#FF6200"/>
<path d="M43.9594 51.0438L45.1188 50.3661L48.6 52.3879V53.7376L43.9594 51.0438Z" fill="url(#paint34_linear_67_2361)"/>
<path d="M50.9189 45.0589C50.9189 43.1549 52.2182 42.368 53.8203 43.2984C55.4224 44.2289 56.7189 46.5235 56.7189 48.4275V58.4531L50.9189 55.0845V45.0589Z" fill="url(#paint35_linear_67_2361)"/>
<path d="M56.7189 48.4276C56.7189 46.5235 55.4224 44.2261 53.8203 43.2985C53.4124 43.0386 52.9381 42.9039 52.4553 42.9108C52.1903 43.3557 52.0602 43.8687 52.0812 44.3869V54.4096L56.7189 57.1063V48.4276Z" fill="#FFE0CC"/>
<path opacity="0.5" d="M56.7189 48.4276C56.7189 46.5235 55.4224 44.2261 53.8203 43.2985C53.4124 43.0386 52.9381 42.9039 52.4553 42.9108C52.1903 43.3557 52.0602 43.8687 52.0812 44.3869V54.4096L56.7189 57.1063V48.4276Z" fill="#FF6200"/>
<path d="M52.0812 54.4096L50.9189 55.0845L56.7217 58.4503V57.1034L52.0812 54.4096Z" fill="url(#paint36_linear_67_2361)"/>
<path d="M59.0406 49.203C59.0406 47.6177 60.0772 46.9342 61.3594 47.678C62.6417 48.4218 63.6812 50.3115 63.6812 51.8967V62.4967L59.0406 59.8029V49.203Z" fill="url(#paint37_linear_67_2361)"/>
<path d="M61.3595 47.6751C61.0833 47.5092 60.7722 47.4108 60.4513 47.3879C60.2743 47.744 60.1879 48.1387 60.2 48.5367V59.1366L63.6812 61.1469V51.8939C63.6812 50.3086 62.6417 48.4189 61.3595 47.6751Z" fill="#FFE0CC"/>
<path opacity="0.5" d="M61.3595 47.6751C61.0833 47.5092 60.7722 47.4108 60.4513 47.3879C60.2743 47.744 60.1879 48.1387 60.2 48.5367V59.1366L63.6812 61.1469V51.8939C63.6812 50.3086 62.6417 48.4189 61.3595 47.6751Z" fill="#FF6200"/>
<path d="M60.2 59.1252L59.0406 59.7972L63.6812 62.4938V61.147L60.2 59.1252Z" fill="url(#paint38_linear_67_2361)"/>
<path d="M59.0406 80.17C59.0406 78.5847 60.0772 77.9012 61.3594 78.6451C62.6417 79.3889 63.6812 81.2785 63.6812 82.8638V94.8221L59.0406 92.1283V80.17Z" fill="url(#paint39_linear_67_2361)"/>
<path d="M61.3594 78.645C61.0833 78.4791 60.7722 78.3807 60.4513 78.3578C60.2747 78.7141 60.1884 79.1087 60.2 79.5066V91.462L63.6812 93.4723V82.8465C63.6812 81.2785 62.6417 79.3888 61.3594 78.645Z" fill="#FFE0CC"/>
<path opacity="0.5" d="M61.3594 78.645C61.0833 78.4791 60.7722 78.3807 60.4513 78.3578C60.2747 78.7141 60.1884 79.1087 60.2 79.5066V91.462L63.6812 93.4723V82.8465C63.6812 81.2785 62.6417 79.3888 61.3594 78.645Z" fill="#FF6200"/>
<path d="M59.0406 92.1283V88.0848L63.6812 90.7814V94.8221L59.0406 92.1283Z" fill="url(#paint40_linear_67_2361)"/>
<path d="M59.0406 88.0847L60.2 87.4127L63.6812 89.4316V90.7814L59.0406 88.0847Z" fill="url(#paint41_linear_67_2361)"/>
<path d="M43.9594 71.4138C43.9594 69.8285 44.9989 69.145 46.2783 69.8888C47.5576 70.6326 48.6 72.5223 48.6 74.1076V86.0659L43.9594 83.3778V71.4138Z" fill="url(#paint42_linear_67_2361)"/>
<path d="M46.2783 69.8802C46.0017 69.7151 45.6909 69.6168 45.3701 69.593C45.1935 69.9493 45.1072 70.3439 45.1188 70.7418V82.7001L48.6 84.7104V74.0846C48.6 72.5194 47.5605 70.6298 46.2783 69.8802Z" fill="#FFE0CC"/>
<path opacity="0.5" d="M46.2783 69.8802C46.0017 69.7151 45.6909 69.6168 45.3701 69.593C45.1935 69.9493 45.1072 70.3439 45.1188 70.7418V82.7001L48.6 84.7104V74.0846C48.6 72.5194 47.5605 70.6298 46.2783 69.8802Z" fill="#FF6200"/>
<path d="M48.6 86.0659V82.0252L43.9594 79.3314V83.3721L48.6 86.0659Z" fill="url(#paint43_linear_67_2361)"/>
<path d="M43.9594 79.3314L45.1188 78.6565L48.6 80.6783V82.0252L43.9594 79.3314Z" fill="url(#paint44_linear_67_2361)"/>
<path d="M50.9189 87.4127V86.0659L56.7217 89.4316V90.7814L50.9189 87.4127Z" fill="url(#paint45_linear_67_2361)"/>
<path d="M50.9189 86.0659L52.0812 85.391L56.7217 88.0876V89.4317L50.9189 86.0659Z" fill="url(#paint46_linear_67_2361)"/>
<path d="M66 43.6345L91.5217 28.8158L66 14L40.4811 28.8158L66 43.6345Z" fill="#FFE0CC"/>
<path opacity="0.7" d="M66 43.6345L91.5217 28.8158L66 14L40.4811 28.8158L66 43.6345Z" fill="#FF6200"/>
<path d="M66 40.9407L86.8811 28.8158L66 16.6938L45.1188 28.8158L66 40.9407Z" fill="#FFE0CC"/>
<path d="M66 16.6938V20.7345L48.6 30.8376L45.1188 28.8158L66 16.6938Z" fill="#FFE0CC"/>
<path opacity="0.2" d="M66 16.6938V20.7345L48.6 30.8376L45.1188 28.8158L66 16.6938Z" fill="url(#paint47_linear_67_2361)"/>
<path d="M66 16.6938L86.8811 28.8158L83.4 30.8376L66 20.7345V16.6938Z" fill="#FFE0CC"/>
<path opacity="0.5" d="M66 16.6938L86.8811 28.8158L83.4 30.8376L66 20.7345V16.6938Z" fill="#FF6200"/>
<path d="M62.5189 20.0624L56.7217 23.4282L64.8406 28.1438L70.6406 24.7751L62.5189 20.0624Z" fill="url(#paint48_linear_67_2361)"/>
<path d="M56.7217 23.4282V27.4718L64.8406 32.1845V28.1438L56.7217 23.4282Z" fill="url(#paint49_linear_67_2361)"/>
<path d="M70.6406 24.7751V28.8158L64.8406 32.1845V28.1438L70.6406 24.7751Z" fill="url(#paint50_linear_67_2361)"/>
<path d="M60.6141 22.3226C59.5603 22.9343 59.5603 23.9251 60.6141 24.5368C61.2047 24.8384 61.8578 24.9957 62.5203 24.9957C63.1827 24.9957 63.8358 24.8384 64.4265 24.5368C65.4774 23.9251 65.4774 22.9343 64.4265 22.3226C63.8358 22.0209 63.1827 21.8636 62.5203 21.8636C61.8578 21.8636 61.2047 22.0209 60.6141 22.3226Z" fill="url(#paint51_linear_67_2361)"/>
<path d="M61.6279 22.9544C61.1338 23.2157 61.1338 23.6436 61.6279 23.9049C61.9075 24.0355 62.212 24.1031 62.5203 24.1031C62.8285 24.1031 63.1331 24.0355 63.4127 23.9049C63.9039 23.6436 63.9039 23.2157 63.4127 22.9544C63.1331 22.8238 62.8285 22.7562 62.5203 22.7562C62.212 22.7562 61.9075 22.8238 61.6279 22.9544Z" fill="url(#paint52_linear_67_2361)"/>
<path d="M66.6368 28.4482L67.7934 29.1202V31.814" stroke="url(#paint53_linear_67_2361)" stroke-width="2" stroke-linecap="round" stroke-linejoin="round"/>
<path d="M68.3188 27.4689L69.4783 28.1438V30.8376" stroke="url(#paint54_linear_67_2361)" stroke-width="2" stroke-linecap="round" stroke-linejoin="round"/>
</g>
<defs>
<linearGradient id="paint0_linear_67_2361" x1="66" y1="65.3981" x2="66" y2="99.9936" gradientUnits="userSpaceOnUse">
<stop stop-color="#FF853A"/>
<stop offset="1" stop-color="#FF2A3F"/>
</linearGradient>
<linearGradient id="paint1_linear_67_2361" x1="65.9908" y1="65.3981" x2="65.9908" y2="98.6524" gradientUnits="userSpaceOnUse">
<stop stop-color="#FF853A"/>
<stop offset="1" stop-color="#FF2A3F"/>
</linearGradient>
<linearGradient id="paint2_linear_67_2361" x1="80.5" y1="33.5314" x2="80.5" y2="92.8003" gradientUnits="userSpaceOnUse">
<stop stop-color="#FF853A"/>
<stop offset="1" stop-color="#FF2A3F"/>
</linearGradient>
<linearGradient id="paint3_linear_67_2361" x1="53.8203" y1="33.5314" x2="53.8203" y2="96.169" gradientUnits="userSpaceOnUse">
<stop stop-color="#FF853A"/>
<stop offset="1" stop-color="#FF2A3F"/>
</linearGradient>
<linearGradient id="paint4_linear_67_2361" x1="68.9" y1="73.941" x2="68.9" y2="78.6565" gradientUnits="userSpaceOnUse">
<stop stop-color="#FF853A"/>
<stop offset="1" stop-color="#FF2A3F"/>
</linearGradient>
<linearGradient id="paint5_linear_67_2361" x1="68.3203" y1="44.9814" x2="68.3203" y2="75.9627" gradientUnits="userSpaceOnUse">
<stop stop-color="#FF853A"/>
<stop offset="1" stop-color="#FF2A3F"/>
</linearGradient>
<linearGradient id="paint6_linear_67_2361" x1="68.3203" y1="75.9627" x2="68.3203" y2="96.1689" gradientUnits="userSpaceOnUse">
<stop stop-color="#FF853A"/>
<stop offset="1" stop-color="#FF2A3F"/>
</linearGradient>
<linearGradient id="paint7_linear_67_2361" x1="59.6203" y1="62.4938" x2="59.6203" y2="69.2283" gradientUnits="userSpaceOnUse">
<stop stop-color="#FF853A"/>
<stop offset="1" stop-color="#FF2A3F"/>
</linearGradient>
<linearGradient id="paint8_linear_67_2361" x1="61.3609" y1="68.5534" x2="61.3609" y2="71.9221" gradientUnits="userSpaceOnUse">
<stop stop-color="#FF853A"/>
<stop offset="1" stop-color="#FF2A3F"/>
</linearGradient>
<linearGradient id="paint9_linear_67_2361" x1="51.5" y1="57.7783" x2="51.5" y2="64.5127" gradientUnits="userSpaceOnUse">
<stop stop-color="#FF853A"/>
<stop offset="1" stop-color="#FF2A3F"/>
</linearGradient>
<linearGradient id="paint10_linear_67_2361" x1="53.8203" y1="63.8407" x2="53.8203" y2="67.8814" gradientUnits="userSpaceOnUse">
<stop stop-color="#FF853A"/>
<stop offset="1" stop-color="#FF2A3F"/>
</linearGradient>
<linearGradient id="paint11_linear_67_2361" x1="78.7594" y1="76.2987" x2="78.7594" y2="83.0332" gradientUnits="userSpaceOnUse">
<stop stop-color="#FF853A"/>
<stop offset="1" stop-color="#FF2A3F"/>
</linearGradient>
<linearGradient id="paint12_linear_67_2361" x1="76.4391" y1="82.3612" x2="76.4391" y2="86.4019" gradientUnits="userSpaceOnUse">
<stop stop-color="#FF853A"/>
<stop offset="1" stop-color="#FF2A3F"/>
</linearGradient>
<linearGradient id="paint13_linear_67_2361" x1="78.7594" y1="65.0756" x2="78.7594" y2="71.8101" gradientUnits="userSpaceOnUse">
<stop stop-color="#FF853A"/>
<stop offset="1" stop-color="#FF2A3F"/>
</linearGradient>
<linearGradient id="paint14_linear_67_2361" x1="76.4391" y1="71.1352" x2="76.4391" y2="75.1787" gradientUnits="userSpaceOnUse">
<stop stop-color="#FF853A"/>
<stop offset="1" stop-color="#FF2A3F"/>
</linearGradient>
<linearGradient id="paint15_linear_67_2361" x1="78.7594" y1="53.8496" x2="78.7594" y2="60.5841" gradientUnits="userSpaceOnUse">
<stop stop-color="#FF853A"/>
<stop offset="1" stop-color="#FF2A3F"/>
</linearGradient>
<linearGradient id="paint16_linear_67_2361" x1="76.4391" y1="59.912" x2="76.4391" y2="63.9527" gradientUnits="userSpaceOnUse">
<stop stop-color="#FF853A"/>
<stop offset="1" stop-color="#FF2A3F"/>
</linearGradient>
<linearGradient id="paint17_linear_67_2361" x1="78.7594" y1="42.6236" x2="78.7594" y2="49.3581" gradientUnits="userSpaceOnUse">
<stop stop-color="#FF853A"/>
<stop offset="1" stop-color="#FF2A3F"/>
</linearGradient>
<linearGradient id="paint18_linear_67_2361" x1="76.4391" y1="48.686" x2="76.4391" y2="52.7267" gradientUnits="userSpaceOnUse">
<stop stop-color="#FF853A"/>
<stop offset="1" stop-color="#FF2A3F"/>
</linearGradient>
<linearGradient id="paint19_linear_67_2361" x1="87.0082" y1="71.5114" x2="87.0082" y2="78.2487" gradientUnits="userSpaceOnUse">
<stop stop-color="#FF853A"/>
<stop offset="1" stop-color="#FF2A3F"/>
</linearGradient>
<linearGradient id="paint20_linear_67_2361" x1="84.6879" y1="77.5739" x2="84.6879" y2="81.6145" gradientUnits="userSpaceOnUse">
<stop stop-color="#FF853A"/>
<stop offset="1" stop-color="#FF2A3F"/>
</linearGradient>
<linearGradient id="paint21_linear_67_2361" x1="87.0082" y1="60.2883" x2="87.0082" y2="67.0227" gradientUnits="userSpaceOnUse">
<stop stop-color="#FF853A"/>
<stop offset="1" stop-color="#FF2A3F"/>
</linearGradient>
<linearGradient id="paint22_linear_67_2361" x1="84.6879" y1="66.3478" x2="84.6879" y2="70.3885" gradientUnits="userSpaceOnUse">
<stop stop-color="#FF853A"/>
<stop offset="1" stop-color="#FF2A3F"/>
</linearGradient>
<linearGradient id="paint23_linear_67_2361" x1="87.0082" y1="49.0623" x2="87.0082" y2="55.7967" gradientUnits="userSpaceOnUse">
<stop stop-color="#FF853A"/>
<stop offset="1" stop-color="#FF2A3F"/>
</linearGradient>
<linearGradient id="paint24_linear_67_2361" x1="84.6879" y1="55.1247" x2="84.6879" y2="59.1654" gradientUnits="userSpaceOnUse">
<stop stop-color="#FF853A"/>
<stop offset="1" stop-color="#FF2A3F"/>
</linearGradient>
<linearGradient id="paint25_linear_67_2361" x1="87.0082" y1="37.8362" x2="87.0082" y2="44.5736" gradientUnits="userSpaceOnUse">
<stop stop-color="#FF853A"/>
<stop offset="1" stop-color="#FF2A3F"/>
</linearGradient>
<linearGradient id="paint26_linear_67_2361" x1="84.6879" y1="43.8987" x2="84.6879" y2="47.9394" gradientUnits="userSpaceOnUse">
<stop stop-color="#FF853A"/>
<stop offset="1" stop-color="#FF2A3F"/>
</linearGradient>
<linearGradient id="paint27_linear_67_2361" x1="44.5391" y1="53.7376" x2="44.5391" y2="60.4721" gradientUnits="userSpaceOnUse">
<stop stop-color="#FF853A"/>
<stop offset="1" stop-color="#FF2A3F"/>
</linearGradient>
<linearGradient id="paint28_linear_67_2361" x1="46.2797" y1="59.7972" x2="46.2797" y2="63.1658" gradientUnits="userSpaceOnUse">
<stop stop-color="#FF853A"/>
<stop offset="1" stop-color="#FF2A3F"/>
</linearGradient>
<linearGradient id="paint29_linear_67_2361" x1="53.8189" y1="73.8779" x2="53.8189" y2="90.7814" gradientUnits="userSpaceOnUse">
<stop stop-color="#FF853A"/>
<stop offset="1" stop-color="#FF2A3F"/>
</linearGradient>
<linearGradient id="paint30_linear_67_2361" x1="54.3989" y1="73.8804" x2="54.3989" y2="89.4345" gradientUnits="userSpaceOnUse">
<stop stop-color="#FF853A"/>
<stop offset="1" stop-color="#FF2A3F"/>
</linearGradient>
<linearGradient id="paint31_linear_67_2361" x1="54.4029" y1="74.4407" x2="54.4029" y2="87.2261" gradientUnits="userSpaceOnUse">
<stop stop-color="#FF853A"/>
<stop offset="1" stop-color="#FF2A3F"/>
</linearGradient>
<linearGradient id="paint32_linear_67_2361" x1="78.7609" y1="28.8158" x2="78.7609" y2="47.6751" gradientUnits="userSpaceOnUse">
<stop stop-color="#FF853A"/>
<stop offset="1" stop-color="#FF2A3F"/>
</linearGradient>
<linearGradient id="paint33_linear_67_2361" x1="46.2797" y1="38.6182" x2="46.2797" y2="53.7376" gradientUnits="userSpaceOnUse">
<stop stop-color="#FF853A"/>
<stop offset="1" stop-color="#FF2A3F"/>
</linearGradient>
<linearGradient id="paint34_linear_67_2361" x1="46.2797" y1="50.3661" x2="46.2797" y2="53.7376" gradientUnits="userSpaceOnUse">
<stop stop-color="#FF853A"/>
<stop offset="1" stop-color="#FF2A3F"/>
</linearGradient>
<linearGradient id="paint35_linear_67_2361" x1="53.8189" y1="42.9075" x2="53.8189" y2="58.4531" gradientUnits="userSpaceOnUse">
<stop stop-color="#FF853A"/>
<stop offset="1" stop-color="#FF2A3F"/>
</linearGradient>
<linearGradient id="paint36_linear_67_2361" x1="53.8203" y1="54.4096" x2="53.8203" y2="58.4503" gradientUnits="userSpaceOnUse">
<stop stop-color="#FF853A"/>
<stop offset="1" stop-color="#FF2A3F"/>
</linearGradient>
<linearGradient id="paint37_linear_67_2361" x1="61.3609" y1="47.3773" x2="61.3609" y2="62.4967" gradientUnits="userSpaceOnUse">
<stop stop-color="#FF853A"/>
<stop offset="1" stop-color="#FF2A3F"/>
</linearGradient>
<linearGradient id="paint38_linear_67_2361" x1="61.3609" y1="59.1252" x2="61.3609" y2="62.4938" gradientUnits="userSpaceOnUse">
<stop stop-color="#FF853A"/>
<stop offset="1" stop-color="#FF2A3F"/>
</linearGradient>
<linearGradient id="paint39_linear_67_2361" x1="61.3609" y1="78.3443" x2="61.3609" y2="94.8221" gradientUnits="userSpaceOnUse">
<stop stop-color="#FF853A"/>
<stop offset="1" stop-color="#FF2A3F"/>
</linearGradient>
<linearGradient id="paint40_linear_67_2361" x1="61.3609" y1="88.0848" x2="61.3609" y2="94.8221" gradientUnits="userSpaceOnUse">
<stop stop-color="#FF853A"/>
<stop offset="1" stop-color="#FF2A3F"/>
</linearGradient>
<linearGradient id="paint41_linear_67_2361" x1="61.3609" y1="87.4127" x2="61.3609" y2="90.7814" gradientUnits="userSpaceOnUse">
<stop stop-color="#FF853A"/>
<stop offset="1" stop-color="#FF2A3F"/>
</linearGradient>
<linearGradient id="paint42_linear_67_2361" x1="46.2797" y1="69.5881" x2="46.2797" y2="86.0659" gradientUnits="userSpaceOnUse">
<stop stop-color="#FF853A"/>
<stop offset="1" stop-color="#FF2A3F"/>
</linearGradient>
<linearGradient id="paint43_linear_67_2361" x1="46.2797" y1="79.3314" x2="46.2797" y2="86.0659" gradientUnits="userSpaceOnUse">
<stop stop-color="#FF853A"/>
<stop offset="1" stop-color="#FF2A3F"/>
</linearGradient>
<linearGradient id="paint44_linear_67_2361" x1="46.2797" y1="78.6565" x2="46.2797" y2="82.0252" gradientUnits="userSpaceOnUse">
<stop stop-color="#FF853A"/>
<stop offset="1" stop-color="#FF2A3F"/>
</linearGradient>
<linearGradient id="paint45_linear_67_2361" x1="53.8203" y1="86.0659" x2="53.8203" y2="90.7814" gradientUnits="userSpaceOnUse">
<stop stop-color="#FF853A"/>
<stop offset="1" stop-color="#FF2A3F"/>
</linearGradient>
<linearGradient id="paint46_linear_67_2361" x1="53.8203" y1="85.391" x2="53.8203" y2="89.4317" gradientUnits="userSpaceOnUse">
<stop stop-color="#FF853A"/>
<stop offset="1" stop-color="#FF2A3F"/>
</linearGradient>
<linearGradient id="paint47_linear_67_2361" x1="55.5594" y1="16.6938" x2="55.5594" y2="30.8376" gradientUnits="userSpaceOnUse">
<stop stop-color="#FF853A"/>
<stop offset="1" stop-color="#FF2A3F"/>
</linearGradient>
<linearGradient id="paint48_linear_67_2361" x1="63.6812" y1="20.0624" x2="63.6812" y2="28.1438" gradientUnits="userSpaceOnUse">
<stop stop-color="#FF853A"/>
<stop offset="1" stop-color="#FF2A3F"/>
</linearGradient>
<linearGradient id="paint49_linear_67_2361" x1="60.7812" y1="23.4282" x2="60.7812" y2="32.1845" gradientUnits="userSpaceOnUse">
<stop stop-color="#FF853A"/>
<stop offset="1" stop-color="#FF2A3F"/>
</linearGradient>
<linearGradient id="paint50_linear_67_2361" x1="67.7406" y1="24.7751" x2="67.7406" y2="32.1845" gradientUnits="userSpaceOnUse">
<stop stop-color="#FF853A"/>
<stop offset="1" stop-color="#FF2A3F"/>
</linearGradient>
<linearGradient id="paint51_linear_67_2361" x1="62.5192" y1="21.8636" x2="62.5192" y2="24.9957" gradientUnits="userSpaceOnUse">
<stop stop-color="#FF853A"/>
<stop offset="1" stop-color="#FF2A3F"/>
</linearGradient>
<linearGradient id="paint52_linear_67_2361" x1="62.5192" y1="22.7562" x2="62.5192" y2="24.1031" gradientUnits="userSpaceOnUse">
<stop stop-color="#FF853A"/>
<stop offset="1" stop-color="#FF2A3F"/>
</linearGradient>
<linearGradient id="paint53_linear_67_2361" x1="67.2151" y1="28.4482" x2="67.2151" y2="31.814" gradientUnits="userSpaceOnUse">
<stop stop-color="#FF853A"/>
<stop offset="1" stop-color="#FF2A3F"/>
</linearGradient>
<linearGradient id="paint54_linear_67_2361" x1="68.8986" y1="27.4689" x2="68.8986" y2="30.8376" gradientUnits="userSpaceOnUse">
<stop stop-color="#FF853A"/>
<stop offset="1" stop-color="#FF2A3F"/>
</linearGradient>
<clipPath id="clip0_67_2361">
<rect width="58" height="86" fill="white" transform="translate(37 14)"/>
</clipPath>
</defs>
</svg>
