<svg width="100" height="100" viewBox="0 0 100 100" fill="none" xmlns="http://www.w3.org/2000/svg">
<rect x="12" y="12" width="76" height="76" rx="12" fill="#FFE0CC"/>
<circle cx="64.5" cy="63.5" r="31" fill="url(#paint0_linear_67_2274)" stroke="url(#paint1_linear_67_2274)"/>
<path d="M63.3608 44.375C53.4516 44.375 45.375 52.5109 45.375 62.4928C45.375 73.3636 51.7684 81.8178 51.7684 81.8178C51.9257 82.0295 52.1229 82.208 52.3487 82.343C52.5745 82.478 52.8245 82.5669 53.0845 82.6045C53.3444 82.6421 53.6091 82.6278 53.8635 82.5624C54.1179 82.497 54.3571 82.3817 54.5673 82.2232C54.7775 82.0646 54.9546 81.8659 55.0885 81.6384C55.2225 81.4109 55.3106 81.159 55.3479 80.8972C55.3852 80.6354 55.371 80.3687 55.3059 80.1125C55.2409 79.8562 55.1264 79.6153 54.969 79.4036C54.969 79.4036 49.3718 71.7531 49.3718 62.4928C49.3718 54.6871 55.6119 48.4012 63.3608 48.4012C71.1096 48.4012 77.3497 54.6871 77.3497 62.4928C77.3497 63.6303 76.4804 64.5059 75.3513 64.5059C74.2221 64.5059 73.3529 63.6303 73.3529 62.4928C73.3531 62.418 73.3492 62.3432 73.3412 62.2687C73.2207 56.837 68.7804 52.4274 63.3608 52.4274C57.8661 52.4274 53.3687 56.9578 53.3687 62.4928C53.3687 73.632 62.1625 80.2096 62.1625 80.2096C62.5869 80.5298 63.1202 80.667 63.645 80.591C64.1699 80.5151 64.6433 80.2322 64.9611 79.8047C65.2789 79.3771 65.415 78.8399 65.3397 78.3112C65.2643 77.7826 64.9835 77.3057 64.559 76.9856C64.559 76.9856 57.3655 71.4847 57.3655 62.4928C57.3655 59.134 60.0264 56.4536 63.3608 56.4536C66.6951 56.4536 69.356 59.134 69.356 62.4928C69.3545 62.6395 69.3689 62.7858 69.399 62.9293C69.6278 66.0372 72.212 68.5321 75.3513 68.5321C78.4919 68.5321 81.0767 66.0351 81.3036 62.9253C81.3334 62.7832 81.3478 62.6382 81.3465 62.4928C81.3469 62.4167 81.343 62.3405 81.3348 62.2648C81.2116 52.3885 73.1935 44.375 63.3608 44.375ZM63.3295 60.4522C62.8002 60.4606 62.2958 60.6801 61.927 61.0627C61.5582 61.4453 61.3551 61.9596 61.3624 62.4928C61.3624 65.177 62.5044 68.9298 65.3241 72.3381C68.1437 75.7465 72.7977 78.5976 79.3481 78.5976C79.6129 78.6014 79.8759 78.5521 80.1216 78.4526C80.3673 78.3531 80.591 78.2055 80.7796 78.0182C80.9682 77.8308 81.1179 77.6077 81.2201 77.3615C81.3224 77.1154 81.375 76.8513 81.375 76.5845C81.375 76.3177 81.3224 76.0536 81.2201 75.8075C81.1179 75.5614 80.9682 75.3382 80.7796 75.1509C80.591 74.9636 80.3673 74.8159 80.1216 74.7164C79.8759 74.6169 79.6129 74.5676 79.3481 74.5714C73.908 74.5714 70.5684 72.3898 68.3919 69.7589C66.2155 67.128 65.3592 63.8349 65.3592 62.4928C65.3629 62.2235 65.3128 61.9562 65.2121 61.7067C65.1113 61.4572 64.9619 61.2306 64.7726 61.0403C64.5834 60.85 64.3581 60.6999 64.1103 60.5989C63.8624 60.4979 63.5969 60.448 63.3295 60.4522Z" fill="white"/>
<defs>
<linearGradient id="paint0_linear_67_2274" x1="64.5" y1="32" x2="64.5" y2="95" gradientUnits="userSpaceOnUse">
<stop stop-color="#FF853A"/>
<stop offset="1" stop-color="#FF2A3F"/>
</linearGradient>
<linearGradient id="paint1_linear_67_2274" x1="64.5018" y1="95.611" x2="64.5018" y2="31.3754" gradientUnits="userSpaceOnUse">
<stop stop-color="white" stop-opacity="0"/>
<stop offset="1" stop-color="white" stop-opacity="0.8"/>
</linearGradient>
</defs>
</svg>
