<svg width="90" height="90" viewBox="0 0 90 90" fill="none" xmlns="http://www.w3.org/2000/svg">
  <!-- Background Circle -->
  <circle cx="45" cy="45" r="40" fill="#E3F2FD" stroke="#1976D2" stroke-width="2"/>
  
  <!-- Dashboard Grid -->
  <rect x="20" y="20" width="18" height="12" rx="2" fill="#1976D2"/>
  <rect x="42" y="20" width="28" height="12" rx="2" fill="#42A5F5"/>
  
  <!-- Chart Bars -->
  <rect x="20" y="36" width="6" height="20" rx="1" fill="#1976D2"/>
  <rect x="28" y="42" width="6" height="14" rx="1" fill="#42A5F5"/>
  <rect x="36" y="38" width="6" height="18" rx="1" fill="#64B5F6"/>
  <rect x="44" y="40" width="6" height="16" rx="1" fill="#90CAF9"/>
  
  <!-- Pie Chart -->
  <circle cx="60" cy="50" r="12" fill="#E3F2FD" stroke="#1976D2" stroke-width="2"/>
  <path d="M 60 38 A 12 12 0 0 1 69.196 56 L 60 50 Z" fill="#1976D2"/>
  <path d="M 60 50 L 69.196 56 A 12 12 0 0 1 50.804 56 Z" fill="#42A5F5"/>
  
  <!-- Trend Line -->
  <polyline points="20,65 28,62 36,58 44,60 52,55 60,52 70,48" 
            stroke="#FF5722" stroke-width="2" fill="none" stroke-linecap="round"/>
  
  <!-- Data Points -->
  <circle cx="28" cy="62" r="2" fill="#FF5722"/>
  <circle cx="44" cy="60" r="2" fill="#FF5722"/>
  <circle cx="60" cy="52" r="2" fill="#FF5722"/>
</svg> 