<svg width="90" height="90" viewBox="0 0 90 90" fill="none" xmlns="http://www.w3.org/2000/svg">
  <!-- Background Circle -->
  <circle cx="45" cy="45" r="40" fill="#E1F5FE" stroke="#0277BD" stroke-width="2"/>
  
  <!-- Main Building -->
  <rect x="25" y="25" width="40" height="50" rx="2" fill="#0288D1" stroke="#0277BD" stroke-width="2"/>
  
  <!-- Building Top -->
  <polygon points="25,25 45,15 65,25" fill="#01579B"/>
  
  <!-- Windows Row 1 -->
  <rect x="30" y="30" width="6" height="6" rx="1" fill="#B3E5FC"/>
  <rect x="39" y="30" width="6" height="6" rx="1" fill="#B3E5FC"/>
  <rect x="48" y="30" width="6" height="6" rx="1" fill="#B3E5FC"/>
  <rect x="57" y="30" width="6" height="6" rx="1" fill="#B3E5FC"/>
  
  <!-- Windows Row 2 -->
  <rect x="30" y="40" width="6" height="6" rx="1" fill="#B3E5FC"/>
  <rect x="39" y="40" width="6" height="6" rx="1" fill="#81D4FA"/>
  <rect x="48" y="40" width="6" height="6" rx="1" fill="#B3E5FC"/>
  <rect x="57" y="40" width="6" height="6" rx="1" fill="#B3E5FC"/>
  
  <!-- Windows Row 3 -->
  <rect x="30" y="50" width="6" height="6" rx="1" fill="#B3E5FC"/>
  <rect x="39" y="50" width="6" height="6" rx="1" fill="#B3E5FC"/>
  <rect x="48" y="50" width="6" height="6" rx="1" fill="#81D4FA"/>
  <rect x="57" y="50" width="6" height="6" rx="1" fill="#B3E5FC"/>
  
  <!-- Entrance Door -->
  <rect x="40" y="60" width="10" height="15" rx="2" fill="#01579B"/>
  <circle cx="47" cy="67" r="1" fill="#B3E5FC"/>
  
  <!-- Company Logo/Sign -->
  <rect x="35" y="18" width="20" height="8" rx="2" fill="white" stroke="#0277BD" stroke-width="1"/>
  <text x="45" y="23" text-anchor="middle" fill="#0277BD" font-family="Arial" font-size="6" font-weight="bold">RDP</text>
  
  <!-- Side Building -->
  <rect x="15" y="45" width="12" height="30" rx="1" fill="#0277BD" stroke="#0277BD" stroke-width="1"/>
  
  <!-- Side Building Windows -->
  <rect x="18" y="50" width="3" height="3" rx="0.5" fill="#B3E5FC"/>
  <rect x="22" y="50" width="3" height="3" rx="0.5" fill="#B3E5FC"/>
  <rect x="18" y="56" width="3" height="3" rx="0.5" fill="#B3E5FC"/>
  <rect x="22" y="56" width="3" height="3" rx="0.5" fill="#B3E5FC"/>
  <rect x="18" y="62" width="3" height="3" rx="0.5" fill="#B3E5FC"/>
  <rect x="22" y="62" width="3" height="3" rx="0.5" fill="#B3E5FC"/>
  
  <!-- Flag -->
  <rect x="67" y="20" width="2" height="25" fill="#0277BD"/>
  <polygon points="69,20 69,30 80,25" fill="#F44336"/>
</svg> 