<svg width="100" height="100" viewBox="0 0 100 100" fill="none" xmlns="http://www.w3.org/2000/svg">
<rect x="12" y="12" width="76" height="76" rx="12" fill="#FFE0CC"/>
<g clip-path="url(#clip0_67_2090)">
<path d="M48.0543 89.7737C47.946 89.6373 38.555 87.3211 37.1103 86.9617C35.6655 86.6023 34.861 86.1797 33.8267 86.9617C32.7924 87.7438 28.422 94.0932 27.7817 93.9867C27.1414 93.8802 25.5949 93.594 25.4537 91.5275C25.3125 89.4609 25.0301 84.4326 25.0301 84.4326L27.7817 82.6489C27.7817 82.6489 42.8335 84.9318 42.9386 84.9784C43.0436 85.025 48.0412 88.6889 48.0412 88.6889L48.0543 89.7737Z" fill="#6B6A69"/>
<path d="M40.3642 84.589L44.0221 85.3211C44.0221 85.3211 43.9072 89.777 41.6908 89.7537C39.4744 89.7304 39.3365 84.6955 39.3365 84.6955L40.3642 84.589ZM41.3493 88.772C41.4823 88.7974 41.6197 88.7805 41.7429 88.7237C41.866 88.6669 41.9688 88.5729 42.0373 88.4546C42.1057 88.3363 42.1364 88.1994 42.1252 88.0628C42.114 87.9261 42.0614 87.7963 41.9746 87.6911C41.8878 87.5859 41.7711 87.5104 41.6404 87.475C41.5097 87.4396 41.3714 87.4459 41.2443 87.4932C41.1173 87.5405 41.0078 87.6264 40.9308 87.7391C40.8538 87.8519 40.813 87.986 40.8141 88.1231C40.8013 88.2808 40.8502 88.4373 40.9504 88.5588C41.0505 88.6802 41.1938 88.7568 41.3493 88.772Z" fill="url(#paint0_linear_67_2090)"/>
<path opacity="0.3" d="M40.3642 84.5823L44.0221 85.3145C44.0221 85.3145 43.9072 89.7737 41.6908 89.7504C39.4744 89.7271 39.3365 84.6888 39.3365 84.6888L40.3642 84.5823ZM41.3493 88.7687C41.4816 88.7939 41.6183 88.7773 41.741 88.7212C41.8637 88.665 41.9663 88.572 42.0351 88.4548C42.1039 88.3375 42.1355 88.2017 42.1256 88.0656C42.1157 87.9296 42.0648 87.7999 41.9797 87.6941C41.8947 87.5884 41.7796 87.5117 41.6502 87.4744C41.5207 87.4371 41.383 87.441 41.2558 87.4857C41.1286 87.5303 41.018 87.6135 40.939 87.7239C40.86 87.8344 40.8164 87.9667 40.8141 88.1031C40.7985 88.2632 40.846 88.4231 40.9463 88.5478C41.0465 88.6725 41.1914 88.7519 41.3493 88.7687Z" fill="#6B6A69"/>
<path d="M39.8816 84.5823L43.5394 85.3145C43.5394 85.3145 43.4245 89.7737 41.2081 89.7504C38.9917 89.7271 38.8538 84.6888 38.8538 84.6888L39.8816 84.5823ZM40.8666 88.7687C40.9989 88.7939 41.1356 88.7773 41.2583 88.7212C41.381 88.665 41.4837 88.572 41.5525 88.4548C41.6213 88.3375 41.6529 88.2017 41.643 88.0656C41.633 87.9296 41.5821 87.7999 41.4971 87.6941C41.412 87.5884 41.297 87.5117 41.1675 87.4744C41.038 87.4371 40.9004 87.441 40.7732 87.4857C40.646 87.5303 40.5354 87.6135 40.4564 87.7239C40.3774 87.8344 40.3337 87.9667 40.3314 88.1031C40.3158 88.2638 40.3638 88.4241 40.4648 88.5489C40.5657 88.6736 40.7114 88.7527 40.8699 88.7687H40.8666Z" fill="url(#paint1_linear_67_2090)"/>
<path d="M60.8386 45.3484C55.2209 43.8775 50.4273 44.7487 47.0349 45.9881C45.3382 46.608 43.9939 47.3199 43.0759 47.8748C42.6171 48.1522 42.2653 48.3903 42.03 48.5574C41.9124 48.641 41.8235 48.7066 41.7654 48.7508C41.7364 48.7729 41.7147 48.7898 41.7009 48.8006C41.6942 48.8059 41.6892 48.81 41.6863 48.8123C41.685 48.8134 41.6839 48.8139 41.6833 48.8143V48.8152L41.6306 48.8572L41.5681 48.8846C37.511 50.6444 35.0952 52.3885 33.2986 54.3611C31.9414 55.8514 30.9267 57.4818 29.821 59.3973L28.6687 61.4129C27.1006 64.153 25.9819 68.0475 25.2537 71.2928C24.8911 72.9083 24.628 74.3499 24.4558 75.3875C24.3697 75.9062 24.3062 76.324 24.2644 76.6111C24.2435 76.7545 24.2277 76.8655 24.2175 76.9402C24.2125 76.9772 24.2093 77.0054 24.2068 77.0242C24.2055 77.0336 24.2045 77.0411 24.2039 77.0457C24.2036 77.0479 24.203 77.0495 24.2029 77.0506V77.0526L24.1619 77.366L23.8611 77.4637L22.1433 78.0193L22.1423 78.0203C21.8574 78.1121 21.6196 78.3215 21.4197 78.6375C21.2179 78.9566 21.0727 79.3572 20.9724 79.7684C20.873 80.1759 20.823 80.5718 20.7976 80.868C20.785 81.0153 20.7782 81.1367 20.7751 81.2195C20.7736 81.2608 20.7726 81.2925 20.7722 81.3133V81.6043L20.5554 81.7537H20.5544C20.5537 81.7542 20.5523 81.7555 20.5505 81.7567C20.5467 81.7594 20.5402 81.7635 20.532 81.7693C20.5151 81.7813 20.4896 81.7997 20.4568 81.824C20.3906 81.873 20.2952 81.9462 20.1814 82.0389C19.9526 82.2251 19.6553 82.4873 19.3748 82.7947C19.092 83.1047 18.8423 83.4437 18.6892 83.782C18.5559 84.0769 18.5073 84.3445 18.5476 84.5858L18.5701 84.6873C18.7829 85.4466 19.1232 86.0265 19.6882 86.4354C20.2613 86.8499 21.1265 87.1324 22.4734 87.1707L22.6912 87.1688C23.7654 87.1154 24.6221 86.4423 25.3484 85.6346C25.7354 85.2042 26.052 84.7744 26.3513 84.3983C26.4954 84.2172 26.6405 84.0427 26.781 83.9031C26.8941 83.7907 27.0463 83.6574 27.2302 83.5809L27.3113 83.5516L27.4441 83.5242C27.4859 83.5192 27.5242 83.5174 27.5535 83.5164C27.6229 83.5141 27.7015 83.5163 27.7839 83.5203C27.9498 83.5284 28.1601 83.547 28.4031 83.574C28.8909 83.6282 29.5386 83.7184 30.2869 83.8318C31.7854 84.0591 33.7081 84.3832 35.6023 84.7147C37.4971 85.0463 39.3672 85.3854 40.7634 85.6414C41.4616 85.7694 42.0417 85.8767 42.447 85.952C42.6495 85.9896 42.8084 86.0196 42.9167 86.0399C42.971 86.05 43.0128 86.058 43.0408 86.0633C43.0548 86.0659 43.0659 86.0678 43.073 86.0692C43.0763 86.0698 43.0791 86.0698 43.0808 86.0701L43.0828 86.0711L42.991 86.5623L43.0837 86.0711L43.1716 86.0877L43.2488 86.1336C49.2796 89.7534 50.8189 95.1434 64.9792 98.0223L65.6628 98.158C73.0772 99.5824 78.2794 99.7622 82.5085 99.2401C86.2077 98.7833 89.1851 97.7873 92.2839 96.5828L93.6218 96.0545C97.1966 94.6281 98.6054 93.3904 99.1414 92.5906C99.4033 92.1997 99.4544 91.9175 99.4587 91.7625C99.461 91.6826 99.4508 91.6276 99.4441 91.6004C99.4424 91.5934 99.4403 91.5883 99.4392 91.5848L99.3689 91.4422L99.407 91.2703C99.4162 91.2285 99.4099 91.0757 99.2078 90.7654C99.0186 90.4751 98.7121 90.1309 98.3064 89.7479C97.4981 88.9848 96.3675 88.1338 95.2048 87.3318C94.0458 86.5324 92.871 85.7923 91.9851 85.2518C91.5426 84.9818 91.1727 84.7623 90.9138 84.6102C90.7844 84.5341 90.6831 84.4744 90.614 84.4344C90.5795 84.4144 90.5526 84.3996 90.5349 84.3895L90.5105 84.3748H90.5095L90.5085 84.3738L90.2722 84.2391L90.2576 83.9666L90.1755 82.4461V82.4451C90.1066 81.092 90.0257 80.3878 89.8308 79.7703C89.8305 79.7693 89.8296 79.7672 89.8269 79.7635C89.8239 79.7592 89.8171 79.7505 89.8035 79.7391C89.7739 79.7144 89.7209 79.6822 89.6345 79.6502C89.4573 79.5845 89.2125 79.5452 88.9402 79.5291C88.6741 79.5134 88.4109 79.5218 88.2117 79.534C88.1129 79.54 88.0312 79.5471 87.9753 79.5526C87.9475 79.5553 87.9259 79.5568 87.9119 79.5584C87.9049 79.5592 87.8994 79.56 87.8962 79.5604L87.8933 79.5613L87.3865 79.6248L87.3337 79.116C86.6385 72.3834 84.5621 66.8355 82.6589 62.9705C81.7077 61.0386 80.8011 59.529 80.1335 58.5047C79.7998 57.9926 79.526 57.6019 79.3367 57.3406C79.242 57.21 79.1682 57.1117 79.1189 57.0467C79.0943 57.0143 79.0754 56.9901 79.0632 56.9744C79.0575 56.967 79.0534 56.9614 79.0505 56.9578L79.0476 56.9539H79.0466C79.046 56.9532 79.0451 56.9518 79.0437 56.95C79.0408 56.9464 79.0363 56.9401 79.03 56.9324C79.0175 56.9171 78.9981 56.894 78.9724 56.8631C78.9206 56.8008 78.8424 56.7077 78.738 56.5877C78.5293 56.3477 78.2169 55.9993 77.8054 55.5711C76.9822 54.7144 75.7641 53.5383 74.1912 52.2693C71.1412 49.8088 66.7705 47.0093 61.365 45.492L60.8386 45.3484Z" fill="url(#paint2_linear_67_2090)" stroke="url(#paint3_linear_67_2090)"/>
<path d="M47.2794 78.6256C47.2794 78.6256 47.2793 77.8303 46.0809 77.604C44.8824 77.3777 29.7912 75.1747 29.1936 75.2113C28.8611 75.2661 28.5532 75.4232 28.3118 75.6613C28.0704 75.8994 27.9071 76.207 27.844 76.5424C27.7324 77.228 27.844 81.4376 27.844 81.4376L27.8867 81.6406C27.9833 82.1026 28.2141 82.5248 28.5494 82.8527C28.8847 83.1807 29.3092 83.3995 29.7682 83.4809C33.7085 84.183 43.7857 85.9567 44.508 85.8103C45.0688 85.6903 45.6024 85.4645 46.0809 85.1448L47.2794 78.6256Z" fill="url(#paint4_linear_67_2090)"/>
<path d="M47.2794 78.6256C47.2656 78.661 47.2556 78.6978 47.2498 78.7354C47.2323 78.8198 47.2094 78.9307 47.1809 79.0682C47.1251 79.3677 47.0397 79.7937 46.9314 80.3428C46.7179 81.4642 46.4126 83.0849 46.0251 85.1115L46.0481 85.0749C45.8019 85.2413 45.5401 85.3829 45.2666 85.4975C44.9839 85.6277 44.6823 85.7109 44.3735 85.7438C43.743 85.7438 43.0601 85.6106 42.3541 85.5175C40.9422 85.3145 39.4153 85.0649 37.7932 84.792L32.6742 83.9002L29.9456 83.4176C29.4872 83.3616 29.0553 83.1694 28.7044 82.8652C28.3513 82.557 28.1012 82.1455 27.9886 81.6872C27.9656 81.5973 27.9459 81.4975 27.9295 81.411C27.9054 80.5125 27.8901 79.6251 27.8835 78.7488C27.8835 78.3128 27.8835 77.8802 27.8835 77.4509C27.8835 77.2379 27.8835 77.025 27.9032 76.8153C27.9028 76.6114 27.9407 76.4092 28.0149 76.2196C28.1703 75.8499 28.4526 75.5496 28.8095 75.3744C28.9789 75.2847 29.1718 75.2509 29.3611 75.2779C29.5548 75.2779 29.7617 75.3178 29.9587 75.3378L32.29 75.6373L40.3413 76.7654L45.7591 77.5774C46.0416 77.6089 46.3188 77.6783 46.5833 77.7837C46.7764 77.8612 46.9462 77.9886 47.0758 78.1531C47.1842 78.288 47.2545 78.4502 47.2794 78.6223C47.2859 78.5782 47.2859 78.5333 47.2794 78.4892C47.2489 78.3595 47.1931 78.2373 47.1152 78.1298C46.9838 77.9587 46.8122 77.8237 46.6161 77.7371C46.3502 77.6224 46.0693 77.5473 45.7821 77.5141C44.5048 77.2978 42.6562 77.015 40.3675 76.6689C38.0789 76.3228 35.3536 75.9268 32.3196 75.5075L29.985 75.2013C29.7847 75.1814 29.5909 75.1514 29.3775 75.1381C29.1613 75.1098 28.9416 75.1481 28.7471 75.2479C28.3533 75.4425 28.042 75.7745 27.8704 76.183C27.7887 76.3894 27.7464 76.6096 27.7456 76.832C27.7456 77.0449 27.7456 77.2612 27.7259 77.4742C27.7259 77.9068 27.7259 78.3394 27.7259 78.7787C27.7259 79.6506 27.7412 80.538 27.7719 81.4409C27.7916 81.5275 27.8047 81.6206 27.8343 81.7205C27.9538 82.2148 28.2224 82.6591 28.6026 82.9917C28.9753 83.3121 29.4314 83.5166 29.916 83.5807L32.6446 84.0599L37.767 84.9318C39.3891 85.198 40.9192 85.4409 42.3344 85.6406C43.0469 85.7271 43.7135 85.8403 44.3833 85.8536C44.7052 85.8181 45.0191 85.7293 45.3126 85.5907C45.5928 85.4704 45.8611 85.3233 46.1138 85.1514H46.1335V85.1281C46.4979 83.0948 46.7902 81.4676 46.9905 80.3494C47.0857 79.797 47.1579 79.3677 47.2104 79.0682L47.263 78.7354C47.2732 78.6997 47.2787 78.6628 47.2794 78.6256Z" fill="#6B6A69"/>
<g opacity="0.3">
<path d="M46.0513 77.6739C41.126 76.8785 36.4174 76.2962 31.5019 75.4875C30.8452 75.381 30.1031 75.2612 29.4366 75.2113C29.1824 75.1682 28.9215 75.2253 28.7076 75.371C28.5566 75.4709 28.3202 75.5807 28.3268 75.7637C28.3268 76.1664 28.8554 76.223 29.2461 76.2862C34.293 77.0782 39.4251 77.7338 44.4588 78.5258C44.8169 78.5657 45.1792 78.5352 45.5259 78.4359C45.8543 78.3827 46.4092 78.2396 46.8952 78.1231C46.6663 77.8889 46.3716 77.732 46.0513 77.6739Z" fill="white"/>
</g>
<path d="M44.4129 85.5175C44.4495 85.4101 44.4716 85.2981 44.4785 85.1847C44.5114 84.9251 44.5508 84.6123 44.6 84.2429C44.692 83.401 44.8135 82.3228 44.9481 81.1281C45.0203 80.5225 45.086 79.9468 45.1484 79.4143C45.1681 79.2845 45.1812 79.1547 45.2042 79.0349C45.2128 78.9208 45.2383 78.8087 45.2797 78.7022C45.4201 78.5576 45.5994 78.4581 45.7952 78.416C46.5504 78.213 47.0495 78.2063 47.0462 78.1731C46.9307 78.1574 46.8137 78.1574 46.6982 78.1731C46.3827 78.1864 46.0693 78.2309 45.7624 78.3062C45.6582 78.329 45.5569 78.3636 45.4603 78.4093C45.3408 78.4514 45.2366 78.5291 45.1615 78.6323C45.1044 78.7502 45.0688 78.8776 45.0564 79.0083C45.0302 79.1348 45.0137 79.2612 44.994 79.3943C44.9152 79.9201 44.8463 80.4992 44.7773 81.1082C44.6427 82.3261 44.5409 83.4376 44.4785 84.2296C44.4457 84.6323 44.426 84.9551 44.4129 85.178C44.3992 85.2908 44.3992 85.4048 44.4129 85.5175Z" fill="#6B6A69"/>
<path d="M72.4346 84.7288C72.4064 84.7238 72.3775 84.7238 72.3492 84.7288H72.0997H71.1343L67.5553 84.8153L65.0598 84.8819C64.6099 84.8819 64.1437 84.9018 63.661 84.9351C63.4102 84.9461 63.1619 84.9898 62.9222 85.0649C62.8582 85.0875 62.7966 85.1165 62.7383 85.1514C62.6746 85.1951 62.6244 85.2562 62.5938 85.3278C62.5377 85.451 62.5012 85.5824 62.4855 85.7171C62.4521 85.9819 62.44 86.249 62.4493 86.5158C62.4493 86.782 62.4493 87.0482 62.4493 87.3211C62.4493 87.8635 62.4493 88.4226 62.4493 88.985C62.4493 90.1231 62.4493 91.3012 62.4493 92.5191C62.5019 92.7715 62.6152 93.0068 62.779 93.2041C62.9428 93.4015 63.1521 93.5548 63.3884 93.6506C63.6231 93.7562 63.877 93.8107 64.1338 93.8103C64.3834 93.8103 64.6329 93.8103 64.8824 93.8103C67.6341 93.7371 70.2379 93.5041 72.6086 93.3111L73.4886 93.2346L73.9188 93.1947C74.0677 93.1896 74.2149 93.1616 74.3555 93.1115C74.5625 93.0309 74.7428 92.8925 74.8753 92.7122C75.0078 92.5319 75.0872 92.3173 75.1041 92.0932C75.1041 91.9434 75.1041 91.8136 75.1041 91.6805C75.0811 90.609 75.0582 89.6106 75.0385 88.6855C75.0187 87.7604 74.9991 86.9517 74.9826 86.2263C74.9861 86.0469 74.9606 85.8682 74.9071 85.6972C74.8506 85.5398 74.766 85.3943 74.6576 85.2679L74.3653 84.9351L74.2997 84.8552C74.2735 84.8242 74.2394 84.8012 74.2012 84.7887C74.1381 84.7672 74.0733 84.7516 74.0074 84.7421C73.6227 84.6964 73.2357 84.6742 72.8483 84.6755H72.543C72.5092 84.6711 72.475 84.6711 72.4412 84.6755H72.543L72.8418 84.6922C73.2264 84.7019 73.6101 84.7341 73.991 84.7887C74.0525 84.7987 74.1129 84.8143 74.1716 84.8353C74.1992 84.8424 74.2235 84.8588 74.2406 84.8819L74.3062 84.9651L74.5886 85.2978C74.6899 85.4165 74.769 85.553 74.8217 85.7005C74.8681 85.8648 74.8891 86.0355 74.8841 86.2063C74.8841 86.9318 74.9038 87.7571 74.917 88.6655C74.9301 89.574 74.9432 90.5757 74.9596 91.6606C74.9926 91.92 74.9587 92.1837 74.8611 92.4259C74.7458 92.6649 74.545 92.8505 74.2997 92.9451C74.173 92.9904 74.04 93.0152 73.9056 93.0183L73.4755 93.0549L72.5955 93.1281C70.2281 93.3111 67.6176 93.5408 64.8792 93.614C64.6329 93.614 64.3833 93.614 64.1404 93.614C63.9049 93.6165 63.6717 93.5665 63.4574 93.4675C63.2477 93.3831 63.0614 93.248 62.9149 93.074C62.7684 92.9 62.6661 92.6924 62.6168 92.4692C62.6168 91.2512 62.6168 90.0699 62.6168 88.9351C62.6168 88.366 62.6168 87.8103 62.6168 87.2712C62.6168 87.0017 62.6168 86.7321 62.6168 86.4659C62.6077 86.2081 62.6187 85.9499 62.6496 85.6938C62.6632 85.5788 62.6943 85.4665 62.7416 85.3611C62.7602 85.3139 62.7922 85.2733 62.8335 85.2446C62.882 85.2143 62.9338 85.1897 62.9879 85.1714C63.2146 85.0989 63.4497 85.0564 63.6873 85.0449C64.1634 85.0083 64.6329 85.0017 65.0795 84.985L67.575 84.8952L71.1507 84.7587L72.1161 84.7121H72.3657L72.4346 84.7288Z" fill="#6B6A69"/>
<path d="M63.546 93.5707C63.5508 93.5076 63.5508 93.4442 63.546 93.3811C63.546 93.238 63.546 93.0483 63.546 92.842C63.546 92.3528 63.546 91.6839 63.5657 90.8652C63.5854 90.0466 63.5657 89.0316 63.5657 87.9335C63.5657 87.6573 63.5657 87.3777 63.5657 87.0816C63.5485 86.9502 63.5632 86.8165 63.6084 86.6922C63.6381 86.6366 63.6788 86.5878 63.728 86.5488C63.7771 86.5099 63.8337 86.4817 63.8941 86.4659C64.1827 86.4063 64.4763 86.3751 64.7708 86.3727L65.7 86.3095C66.9544 86.2263 68.1496 86.1464 69.2364 86.1065C70.3233 86.0666 71.3018 86.0865 72.1259 86.0799L74.0797 86.0633H74.6116C74.6725 86.0726 74.7345 86.0726 74.7955 86.0633C74.735 86.0505 74.6733 86.045 74.6116 86.0466L74.0797 86.0267L72.1292 85.9867C71.3083 85.9867 70.3233 85.9401 69.2299 85.9867C68.1364 86.0333 66.9314 86.0932 65.6869 86.1764L64.761 86.2396C64.4519 86.2432 64.1439 86.2778 63.8416 86.3428C63.6777 86.3934 63.5399 86.5068 63.4574 86.6589C63.402 86.8086 63.3828 86.9695 63.4016 87.1281C63.4213 87.4077 63.4016 87.6972 63.4016 87.9701C63.4016 89.0716 63.4213 90.0632 63.4311 90.9052C63.441 91.7471 63.4541 92.3927 63.464 92.8852C63.464 93.1015 63.464 93.2812 63.464 93.421C63.4854 93.474 63.5129 93.5243 63.546 93.5707Z" fill="#6B6A69"/>
<path opacity="0.3" d="M63.6118 86.579L62.7646 85.2313C62.7646 85.2313 62.4789 85.4675 62.5249 86.579C62.5577 87.3544 62.4231 92.5457 62.5249 92.6955C62.6267 92.8452 63.024 93.5873 63.51 93.6339C63.51 93.6339 63.5724 88.7487 63.51 88.3627C63.4476 87.9767 63.464 86.5823 63.6118 86.579Z" fill="#6B6A69"/>
<path d="M74.4376 91.238C74.5046 91.0223 74.5421 90.7984 74.5492 90.5724C74.5919 90.1531 74.628 89.5741 74.6346 88.9285C74.6411 88.2829 74.6116 87.7005 74.5755 87.2812C74.5721 87.0557 74.5379 86.8317 74.4737 86.6157C74.4244 86.6157 74.4737 87.6573 74.4737 88.9451C74.4737 90.233 74.3883 91.2213 74.4376 91.238Z" fill="white"/>
<g opacity="0.3">
<path d="M63.3063 85.2812C63.4541 85.0083 63.8153 84.975 64.1207 84.9484C67.1744 84.8053 70.1493 84.6889 73.2489 84.7454C73.5524 84.7198 73.8579 84.7536 74.1486 84.8453C74.4376 84.9651 74.7791 85.5374 74.8776 85.8436L74.8447 85.8869L65.2272 86.2196C64.8793 86.2424 64.5301 86.2368 64.1831 86.203C63.9263 86.1876 63.6797 86.0962 63.4738 85.9401C63.3825 85.861 63.3174 85.7553 63.2874 85.6374C63.2575 85.5195 63.2641 85.3951 63.3063 85.2812Z" fill="white"/>
</g>
<path d="M62.4855 85.8636C62.4855 85.8636 58.01 85.7038 57.6882 85.5741C57.3665 85.4443 50.9997 80.3927 49.4564 79.6107C48.6657 79.1911 47.8393 78.8447 46.9872 78.5757C46.9872 78.5757 46.4519 78.5491 46.3305 79.3677C46.2188 80.0333 45.4866 85.4509 45.4538 85.5175C45.4209 85.584 54.3456 91.9601 55.4686 92.1231C56.5915 92.2862 62.5249 92.5291 62.5249 92.5291L62.4855 85.8636Z" fill="url(#paint5_linear_67_2090)"/>
<path d="M62.4855 85.8635C62.4828 85.9034 62.4828 85.9435 62.4855 85.9834C62.4855 86.0699 62.4855 86.183 62.4855 86.3161C62.4855 86.6256 62.4855 87.0682 62.4855 87.6472V92.5258L62.5446 92.4692L58.7587 92.2795C58.0659 92.2396 57.35 92.1997 56.6079 92.1464C56.2402 92.1165 55.856 92.0932 55.485 92.0399C55.124 91.9158 54.7781 91.7506 54.4539 91.5474C53.0847 90.7454 51.6925 89.8037 50.2445 88.822C48.7964 87.8403 47.309 86.792 45.8084 85.6872L45.6114 85.5341L45.5621 85.4975L45.5391 85.4775C45.5194 85.4609 45.5391 85.4775 45.5391 85.5208C45.5391 85.564 45.5227 85.5408 45.5391 85.5208V85.4775V85.4076L45.6114 84.9051C45.6606 84.5724 45.7066 84.2396 45.7525 83.9068C45.8445 83.2412 45.9353 82.5901 46.0251 81.9534C46.1137 81.3145 46.2024 80.6822 46.291 80.0632C46.3246 79.7589 46.375 79.4567 46.4421 79.1581C46.4809 79.0243 46.5494 78.9014 46.6424 78.7987C46.7302 78.7084 46.8463 78.6519 46.9707 78.6389C47.5662 78.8269 48.1487 79.0548 48.7143 79.3211C48.9901 79.4509 49.2692 79.5807 49.5319 79.7238C49.7946 79.8669 50.0441 80.0333 50.2904 80.193C51.2755 80.8586 52.1817 81.5241 53.042 82.163C54.7626 83.4376 56.2533 84.599 57.5306 85.5175L57.662 85.5973C57.7105 85.6161 57.7613 85.6284 57.813 85.6339L58.0954 85.6672L58.6339 85.7071L59.619 85.7604L61.1787 85.8203L62.1637 85.8469H62.4921C62.4638 85.8423 62.435 85.8423 62.4067 85.8469L62.1571 85.8303L61.1721 85.777L59.6157 85.6905L58.6306 85.6239C58.4566 85.6239 58.276 85.5973 58.0954 85.5774C58.0035 85.5774 57.9115 85.5574 57.8196 85.5441C57.7758 85.5396 57.7328 85.5295 57.6915 85.5141L57.5766 85.4409C56.3157 84.5158 54.8283 83.3411 53.1143 82.0599C52.2573 81.4176 51.3477 80.7288 50.3627 80.0632C50.1131 79.9002 49.8668 79.7304 49.5943 79.584C49.3218 79.4376 49.0492 79.3078 48.7701 79.1747C48.1972 78.9032 47.6071 78.6709 47.0036 78.4792H46.9839C46.816 78.4962 46.6577 78.5664 46.5315 78.68C46.4053 78.7935 46.3177 78.9445 46.2812 79.1115C46.212 79.4178 46.1594 79.7278 46.1236 80.0399C46.036 80.6633 45.9463 81.2945 45.8543 81.9334C45.7624 82.5724 45.6716 83.2224 45.5818 83.8835C45.5358 84.2163 45.4866 84.5491 45.4406 84.8819L45.3651 85.381V85.4343V85.4542C45.3651 85.4542 45.3651 85.4542 45.3651 85.5141C45.3708 85.5497 45.3896 85.5818 45.4176 85.604L45.4439 85.6239L45.4964 85.6639L45.6967 85.8203C47.2039 86.9284 48.6979 87.9667 50.1427 88.9551C51.5874 89.9434 52.9862 90.8752 54.3653 91.6772C54.5393 91.7737 54.7133 91.8702 54.8907 91.9601C55.0672 92.0576 55.2546 92.1336 55.4489 92.1863C55.8396 92.2396 56.2139 92.2596 56.5882 92.2895C57.3303 92.3394 58.0494 92.376 58.739 92.4126L62.5282 92.579H62.5906V92.5191C62.5643 90.4359 62.5446 88.7654 62.5282 87.604C62.5282 87.0405 62.5216 86.6045 62.5085 86.2962C62.5085 86.1564 62.5085 86.0466 62.5085 85.9634C62.5037 85.9295 62.496 85.8961 62.4855 85.8635Z" fill="#6B6A69"/>
<path opacity="0.3" d="M22.6954 86.7487C24.856 86.2096 25.6211 84.0366 27.2563 83.9334C27.3974 83.9255 27.5388 83.9255 27.6799 83.9334C27.6167 83.9243 27.5526 83.9243 27.4894 83.9334C26.7079 84.1697 25.3026 87.6506 22.4919 87.574C20.2722 87.5108 19.0836 86.7787 18.4531 85.6572C19.0409 86.3195 20.3838 87.3278 22.6954 86.7487Z" fill="#6B6A69"/>
<path opacity="0.3" d="M56.1778 95.1514C59.8816 96.6323 62.8565 97.1248 66.7836 97.9235C68.3072 98.233 70.1624 98.4759 71.9224 98.6589C77.0961 99.2162 82.3234 98.9704 87.424 97.9301C89.7388 97.4911 91.9962 96.7843 94.152 95.8236C100.24 92.9318 99.9376 92.0333 99.9376 92.0333C99.711 92.9285 98.5684 94.5524 93.8335 96.4426C86.6557 99.3078 80.4957 101.434 65.595 98.5724C51.2525 95.8336 49.105 90.4659 43.6839 86.8918C46.2582 87.7837 47.6635 89.2213 49.4268 90.7255C51.7122 92.6988 52.3229 93.614 56.1778 95.1514Z" fill="#6B6A69"/>
<path d="M29.0655 76.1964C29.1164 76.2158 29.1693 76.2292 29.2231 76.2363L29.6796 76.3228L31.3607 76.6057C32.7825 76.8353 34.7494 77.1415 36.9231 77.4709C39.0968 77.8004 41.0669 78.0865 42.5051 78.2862L44.1961 78.5158L44.6328 78.5757C44.6874 78.5816 44.7424 78.5816 44.797 78.5757C44.7464 78.5547 44.6935 78.5402 44.6394 78.5325L44.183 78.4493L42.4985 78.1664C41.0767 77.9335 39.1132 77.6273 36.9395 77.2979C34.7658 76.9684 32.7989 76.6822 31.3574 76.4826L29.6664 76.2563L29.2067 76.203C29.1601 76.1948 29.1127 76.1926 29.0655 76.1964Z" fill="#6B6A69"/>
<path d="M75.2027 91.5974C75.3972 91.6138 75.5927 91.6138 75.7871 91.5974C76.1648 91.5974 76.7098 91.5674 77.3797 91.5108C79.1291 91.3564 80.8605 91.0367 82.5512 90.5558C83.5363 90.2696 84.4688 89.9401 85.2963 89.6107C86.1238 89.2812 86.856 88.9451 87.4536 88.6123C88.0512 88.2796 88.5306 88.0333 88.8524 87.8336C89.0253 87.7384 89.1891 87.627 89.3416 87.5009C89.162 87.5779 88.9876 87.6668 88.8195 87.7671C88.4912 87.9468 88.0052 88.1964 87.401 88.4925C86.7969 88.7887 86.0646 89.1115 85.2405 89.4409C84.4163 89.7704 83.4904 90.0832 82.5053 90.3694C80.8225 90.8454 79.1037 91.1793 77.3665 91.3677C76.7098 91.441 76.1582 91.4875 75.7839 91.5075C75.5884 91.5246 75.3943 91.5546 75.2027 91.5974Z" fill="#6B6A69"/>
<path d="M90.9046 83.5674C90.898 83.6215 90.898 83.6763 90.9046 83.7304C90.9046 83.8569 90.921 84.01 90.9308 84.1963C90.9637 84.6256 91.0097 85.1947 91.0622 85.9068C91.095 86.2729 91.1279 86.6689 91.164 87.0915C91.164 87.3011 91.2001 87.5175 91.2165 87.7571C91.2329 87.9967 90.9834 88.0233 90.7667 88.0499C90.2859 88.097 89.8007 88.0484 89.3383 87.9068L89.1676 87.8402C89.127 87.8234 89.0902 87.7985 89.0592 87.767C89.0592 87.6705 89.0231 87.5174 89.0067 87.391C88.9771 87.1214 88.9443 86.8519 88.9147 86.5757C88.7965 85.4775 88.6849 84.4326 88.5864 83.4775L88.4354 82.1231C88.3763 81.7005 88.2974 81.3111 88.2383 80.9517C88.1136 80.2596 88.0085 79.6872 87.9297 79.2612C87.8936 79.0782 87.864 78.9284 87.8378 78.8053C87.8309 78.7503 87.8166 78.6965 87.7951 78.6456C87.7864 78.7007 87.7864 78.7568 87.7951 78.812C87.7951 78.9351 87.8312 79.0882 87.8542 79.2745C87.9198 79.7005 88.0052 80.2729 88.1103 80.9684C88.1628 81.3278 88.2318 81.7171 88.2843 82.1397C88.3368 82.5624 88.373 83.0183 88.4189 83.4942C88.5174 84.4492 88.6225 85.4908 88.7473 86.5957C88.7801 86.8719 88.8097 87.1447 88.8425 87.411C88.8622 87.5507 88.8688 87.6672 88.9049 87.8269C88.9475 87.9043 89.0163 87.9635 89.0986 87.9933C89.1606 88.0215 89.2242 88.046 89.2891 88.0665C89.7757 88.2166 90.2873 88.2653 90.7929 88.2096C90.9189 88.1933 91.0411 88.155 91.1541 88.0965C91.2169 88.0666 91.2704 88.0197 91.3086 87.961C91.3469 87.9023 91.3684 87.834 91.3708 87.7637C91.3544 87.5208 91.3282 87.3145 91.3085 87.0981C91.2658 86.6755 91.2231 86.2828 91.187 85.9201C91.1115 85.218 91.0491 84.6422 90.9998 84.213C90.9768 84.0266 90.9571 83.8802 90.9407 83.7504C90.9243 83.6206 90.9111 83.5674 90.9046 83.5674Z" fill="#6B6A69"/>
<path d="M91.1968 85.0715C91.5526 85.2981 91.9209 85.5037 92.3001 85.6872C92.9864 86.0566 93.9419 86.5757 94.9499 87.1913C95.958 87.807 96.8708 88.396 97.5177 88.8319C97.8593 89.0798 98.2133 89.3098 98.5782 89.5208C98.5053 89.4323 98.4202 89.3549 98.3254 89.2912C98.1547 89.1514 97.9019 88.9584 97.5866 88.7288C96.9529 88.2662 96.0598 87.6572 95.0353 87.0416C94.0108 86.4259 93.0652 85.9201 92.3559 85.5774C92.0046 85.4076 91.6992 85.2745 91.5154 85.188C91.4146 85.1354 91.3075 85.0963 91.1968 85.0715Z" fill="#6B6A69"/>
<path d="M90.5073 81.2712C90.1383 81.2013 89.7623 81.1778 89.3876 81.2013C89.0124 81.1735 88.6351 81.2015 88.2679 81.2845C88.6342 81.3738 89.012 81.4041 89.3876 81.3744C90.0049 81.3744 90.5106 81.3278 90.5073 81.2712Z" fill="#6B6A69"/>
<path d="M21.9764 85.1148C22.008 84.949 22.0267 84.781 22.0322 84.6123C22.0519 84.2562 22.0815 83.7903 22.1176 83.2346C22.1537 82.6788 22.1832 81.9501 22.2226 81.188C22.2423 80.802 22.262 80.3993 22.2817 79.98C22.278 79.7855 22.3419 79.5958 22.4623 79.4442C22.536 79.382 22.6216 79.336 22.7138 79.3091C22.8059 79.2822 22.9025 79.275 22.9976 79.2878C23.1716 79.3045 23.3259 79.4742 23.4573 79.6206C23.5294 79.717 23.6212 79.7965 23.7265 79.8536C23.7633 79.8711 23.8046 79.877 23.8447 79.8702C23.8849 79.8606 23.9221 79.8412 23.9531 79.8136C24.0023 79.7704 24.0352 79.7304 24.0746 79.6905C24.3405 79.3577 24.5704 79.0249 24.8134 78.7387C25.2325 78.2119 25.7234 77.748 26.2713 77.361C26.7474 77.0283 27.1512 76.802 27.4336 76.6489C27.716 76.4958 27.8802 76.4259 27.8769 76.416C27.712 76.4506 27.5528 76.5088 27.4041 76.589C26.9913 76.7854 26.591 77.0077 26.2056 77.2546C25.6368 77.6344 25.1276 78.0989 24.6952 78.6323C24.4423 78.9251 24.2059 79.2579 23.9465 79.574C23.9162 79.6108 23.8832 79.6452 23.848 79.6772C23.8283 79.7005 23.8217 79.6772 23.8217 79.7105C23.8217 79.6872 23.8053 79.7105 23.7889 79.6905C23.7092 79.6418 23.6399 79.5773 23.5853 79.5008C23.4496 79.3006 23.2464 79.1575 23.014 79.0982C22.8962 79.0858 22.7772 79.098 22.6642 79.1341C22.5513 79.1701 22.4468 79.2293 22.3573 79.3078C22.2072 79.4881 22.1267 79.7175 22.1307 79.9534L22.0815 81.1614C22.0552 81.9234 22.0322 82.6156 22.0125 83.2113C21.9928 83.807 21.9895 84.2329 21.9797 84.5923C21.9613 84.7659 21.9602 84.941 21.9764 85.1148Z" fill="#6B6A69"/>
<path d="M24.0253 79.6705C23.8579 79.2298 23.7475 78.769 23.697 78.2995C23.6444 77.5208 23.7331 76.8752 23.6773 76.8685C23.5233 77.3329 23.4717 77.826 23.5262 78.3128C23.5457 78.6587 23.6304 78.9976 23.7758 79.3111C23.894 79.574 24.0089 79.6805 24.0253 79.6705Z" fill="#6B6A69"/>
<path d="M20.4101 85.4842C20.5239 84.0322 20.5239 82.5734 20.4101 81.1215C20.2963 82.5734 20.2963 84.0322 20.4101 85.4842Z" fill="#6B6A69"/>
<path d="M19.1328 84.3494C19.1591 84.3494 19.1788 84.2296 19.2477 84.0532C19.341 83.8232 19.4732 83.6114 19.6385 83.4276C20.026 82.9917 20.4462 82.7288 20.4101 82.6789C20.374 82.629 20.2854 82.7088 20.1146 82.8087C19.8893 82.9443 19.6856 83.1137 19.5104 83.3112C19.3282 83.5105 19.1983 83.7531 19.1328 84.0166C19.0869 84.233 19.1098 84.3494 19.1328 84.3494Z" fill="#6B6A69"/>
<path opacity="0.3" d="M90.9308 88.0799C90.9308 88.0799 90.5762 81.3477 90.3103 81.2845C90.0443 81.2213 88.258 81.1947 88.258 81.2845C88.258 81.7804 88.8622 87.6306 88.9673 87.767C89.2661 88.1431 90.9308 88.0799 90.9308 88.0799Z" fill="#6B6A69"/>
<path d="M57.5437 46.2063C57.6911 46.2676 57.8439 46.3144 58.0001 46.3461C58.2989 46.4193 58.7258 46.5391 59.2479 46.7021C61.9799 47.5506 64.5251 48.9245 66.7442 50.7487C67.1678 51.0815 67.506 51.3877 67.7293 51.5973C67.842 51.711 67.9651 51.8135 68.097 51.9035C67.9991 51.7744 67.8891 51.6552 67.7687 51.5474C67.5553 51.3244 67.2302 51.0149 66.8099 50.6522C65.7168 49.7101 64.5267 48.8901 63.2604 48.2063C61.992 47.5245 60.6558 46.9812 59.2742 46.5857C58.7422 46.4359 58.3088 46.3328 58.0067 46.2795C57.8545 46.2428 57.6997 46.2183 57.5437 46.2063Z" fill="white"/>
<g opacity="0.3">
<path d="M98.263 89.3078C98.946 89.767 99.0018 91.0549 98.5224 91.7304C98.043 92.406 97.7048 92.5524 97.0022 92.9817C95.9411 93.5795 94.8164 94.0528 93.6497 94.3927C93.1086 94.5801 92.5345 94.6493 91.9652 94.5957C91.3446 94.4992 90.5763 93.9301 90.0575 93.5707C88.8163 92.7155 87.7425 91.6705 86.5342 90.7654C86.2617 90.5624 85.9596 90.2928 85.9924 89.9501C86.0351 89.5108 86.5703 89.3411 87.0005 89.2845L90.4646 88.7454C90.8058 88.7095 91.1388 88.6161 91.4497 88.4692C91.6067 88.3943 91.7427 88.2807 91.8453 88.1389C91.948 87.9971 92.014 87.8315 92.0374 87.6572C92.0801 87.0815 91.5219 86.4559 91.87 85.9933C92.1721 85.6007 92.7861 85.8336 93.2064 86.0965C94.8481 87.1181 96.6508 88.1797 98.2466 89.3111" fill="white"/>
</g>
<path d="M73.8564 84.8985C73.817 84.9251 73.8827 85.1015 74.0042 85.2912C74.1256 85.4809 74.2537 85.624 74.2931 85.5907C74.3325 85.5574 74.2668 85.391 74.1486 85.198C74.0304 85.005 73.9056 84.8985 73.8564 84.8985Z" fill="white"/>
<path d="M85.5918 96.8486C85.6429 96.8566 85.695 96.8566 85.7461 96.8486L86.1861 96.8253C86.3799 96.8253 86.613 96.7987 86.8855 96.7654C87.1581 96.7321 87.4667 96.7022 87.8049 96.6423C88.6013 96.5194 89.3905 96.3528 90.1691 96.1431C92.0785 95.6307 93.9149 94.8712 95.6329 93.8835C96.3336 93.4755 97.0131 93.0312 97.6687 92.5524C97.9511 92.3561 98.1908 92.1564 98.4075 91.9867C98.6242 91.817 98.8048 91.6539 98.9493 91.5374L99.2776 91.2413C99.3187 91.2088 99.3552 91.1707 99.386 91.1281C99.339 91.1517 99.295 91.1807 99.2546 91.2146L98.9033 91.4842C98.7556 91.604 98.575 91.7504 98.3484 91.9101C98.1218 92.0699 97.8821 92.2629 97.5932 92.4526C97.0317 92.8453 96.3421 93.2812 95.5541 93.7304C94.6945 94.2081 93.8099 94.638 92.9043 95.0183C91.9948 95.388 91.0664 95.7079 90.1231 95.9767C89.2497 96.213 88.4551 96.3927 87.7819 96.5091C87.4536 96.5757 87.1252 96.6123 86.8691 96.6556C86.613 96.6988 86.37 96.7255 86.1796 96.7454L85.7396 96.802C85.6882 96.8095 85.6383 96.8253 85.5918 96.8486Z" fill="white"/>
<path opacity="0.3" d="M62.4855 87.1514C62.4855 87.1514 58.519 87.2945 57.4846 86.762C56.4503 86.2296 50.7107 81.8502 49.6961 80.8419C48.6814 79.8336 46.3534 79.3544 46.3698 79.2712C46.4208 79.0507 46.5351 78.8504 46.6982 78.6955C46.7609 78.635 46.8396 78.5944 46.9247 78.5784C47.0098 78.5625 47.0977 78.5719 47.1776 78.6056C47.8343 78.8852 49.545 79.6406 49.9653 79.9168C50.4808 80.2496 57.6751 85.574 57.6751 85.574L62.4723 85.8635L62.4855 87.1514Z" fill="white"/>
<path d="M46.905 87.8935L47.0692 87.4609C47.0692 87.4609 44.7281 84.4659 42.0323 83.8635C39.3365 83.2612 29.1049 81.2612 27.1479 81.3411C25.191 81.4209 24.9316 82.9018 24.9316 82.9018L38.7487 85.1481L43.0502 86.1198L46.905 87.8935Z" fill="url(#paint6_linear_67_2090)"/>
<path d="M99.9376 91.3111C99.9341 91.3892 99.9078 91.4645 99.8621 91.5274C99.7357 91.7162 99.5818 91.8845 99.4057 92.0266C98.7303 92.582 98.0022 93.068 97.232 93.4775C96.2469 94.0333 95.0025 94.6689 93.5347 95.3278C91.8423 96.0256 90.0918 96.5691 88.304 96.9517C83.6712 97.9833 78.9184 98.3507 74.1848 98.0432C72.8517 97.96 71.4857 97.8203 70.0968 97.6439C68.7078 97.4675 67.2959 97.2379 65.8676 96.9318C63.0076 96.3627 60.0327 95.7903 57.1366 94.7055C55.6968 94.2028 54.3072 93.5633 52.9862 92.7953C51.6991 92.0133 50.6451 90.9417 49.5254 89.99C48.4057 89.0382 47.5552 87.8602 46.5931 86.8319C45.6628 85.788 44.5291 84.9506 43.2636 84.3727C42.955 84.2296 42.6365 84.1231 42.3213 84.0133C42.006 83.9035 41.6842 83.8203 41.3657 83.7537C40.7287 83.6006 40.0983 83.4675 39.4744 83.3411C38.2267 83.0848 37.015 82.8619 35.8395 82.6589C33.4885 82.2496 31.2918 81.9135 29.2724 81.6605C28.2644 81.5341 27.3023 81.421 26.3895 81.3777C26.1596 81.361 25.9285 81.3778 25.7032 81.4276C25.5898 81.4596 25.4798 81.5031 25.3749 81.5574C25.2777 81.6122 25.1834 81.6721 25.0925 81.7371C24.7638 82.0032 24.4643 82.3044 24.1994 82.6356C23.6839 83.2645 23.2373 83.8735 22.771 84.3827C22.3655 84.8665 21.8599 85.2539 21.2901 85.5174C20.8359 85.7297 20.3183 85.7559 19.8454 85.5907C19.6664 85.5075 19.518 85.3688 19.4218 85.1947C19.3437 85.0477 19.2883 84.8895 19.2576 84.7254C19.2228 84.5054 19.214 84.282 19.2314 84.0599C19.2314 83.9035 19.2544 83.8269 19.2544 83.8269C19.237 83.9027 19.2239 83.9793 19.215 84.0566C19.184 84.2851 19.184 84.5169 19.215 84.7454C19.2411 84.9154 19.2955 85.0797 19.3758 85.2313C19.4719 85.4167 19.6253 85.5652 19.8125 85.6539C20.2983 85.831 20.8329 85.8095 21.3033 85.594C21.8864 85.3341 22.4047 84.9452 22.8203 84.4559C23.2964 83.9467 23.7462 83.3344 24.2618 82.7121C24.5246 82.3893 24.8207 82.0959 25.145 81.8369C25.2337 81.7837 25.3158 81.7138 25.411 81.6672C25.5063 81.6196 25.6051 81.5795 25.7065 81.5474C25.9224 81.5024 26.1434 81.4879 26.3632 81.5041C27.2695 81.5541 28.2283 81.6672 29.233 81.8003C31.2426 82.0665 33.436 82.4093 35.7837 82.8219C36.9559 83.0316 38.1676 83.2546 39.412 83.5141C40.0326 83.6406 40.6631 83.777 41.2968 83.9268C41.6252 83.9966 41.9239 84.0998 42.2424 84.1863C42.5609 84.2729 42.8663 84.4026 43.1684 84.5424C44.417 85.1116 45.5352 85.9377 46.452 86.9684C47.4173 87.9867 48.271 89.1747 49.4071 90.1431C50.5433 91.1115 51.5809 92.1697 52.8877 92.9684C54.2236 93.737 55.6274 94.3776 57.0808 94.8818C59.9933 95.97 62.9912 96.5457 65.838 97.1115C67.2631 97.4143 68.6849 97.6506 70.0771 97.8203C71.4693 97.99 72.8418 98.1364 74.1815 98.2163C78.9334 98.5186 83.7035 98.1377 88.35 97.0848C90.1365 96.6878 91.8847 96.131 93.5741 95.4209C95.0452 94.7554 96.2798 94.1065 97.2648 93.5374C98.0349 93.1213 98.7601 92.625 99.4287 92.0566C99.6063 91.9103 99.7583 91.7348 99.8785 91.5374C99.9573 91.3977 99.9442 91.3078 99.9376 91.3111Z" fill="#6B6A69"/>
<path d="M35.2386 85.0449C35.3529 85.0919 35.4717 85.1265 35.5932 85.1481C35.8198 85.2013 36.1547 85.2745 36.5783 85.3544L39.8126 85.9401C40.4398 86.0798 41.0604 86.1331 41.6021 86.2163C42.0845 86.286 42.5565 86.4156 43.0075 86.6023C43.4166 86.7954 43.8117 87.0178 44.1896 87.2679C44.1098 87.1721 44.0182 87.087 43.917 87.0149C43.6495 86.8093 43.3611 86.6331 43.0567 86.4892C42.6013 86.283 42.1211 86.1387 41.6284 86.0599C41.0735 85.9634 40.4726 85.9068 39.8454 85.7704C38.5813 85.5274 37.4288 85.3644 36.598 85.2346L35.613 85.0815C35.4902 85.0535 35.3644 85.0412 35.2386 85.0449Z" fill="#6B6A69"/>
<path opacity="0.3" d="M26.9017 71.5141C26.9017 71.5141 27.7849 63.5441 32.684 57.6073L37.2219 60.3028C33.61 65.4509 34.5392 72.6156 34.5392 72.6156L26.9017 71.5141Z" fill="white"/>
<path opacity="0.3" d="M39.8257 52.3893C52.8417 47.5041 60.2625 59.3144 60.2625 59.3144C60.2625 59.3144 55.1172 53.9467 44.4719 55.3211C42.1735 55.6206 40.64 56.1431 39.2741 57.4775L35.9314 54.4825C37.1294 53.6083 38.4396 52.904 39.8257 52.3893Z" fill="white"/>
<path d="M58.4237 87.0815C58.877 87.2327 59.352 87.3058 59.8291 87.2978C60.3054 87.3458 60.7862 87.311 61.2509 87.1947C60.7812 87.1386 60.3084 87.1153 59.8356 87.1248C59.3666 87.0766 58.8948 87.0621 58.4237 87.0815Z" fill="white"/>
<path d="M48.4451 80.02C48.7063 80.2565 48.9852 80.4724 49.2791 80.6656C49.8012 81.0482 50.5236 81.5774 51.3116 82.1764C52.0997 82.7754 52.8023 83.3278 53.3113 83.7304C53.5784 83.959 53.8603 84.1691 54.1552 84.3594C53.9237 84.0933 53.6675 83.8503 53.3901 83.6339C52.8975 83.208 52.2014 82.6356 51.42 82.0366C50.6385 81.4376 49.8931 80.9218 49.3546 80.5657C49.0686 80.3558 48.7642 80.1731 48.4451 80.02Z" fill="white"/>
<path d="M90.1691 80.8452C90.215 80.8452 90.2052 80.569 90.1494 80.2496C90.0935 79.9301 90.0082 79.6772 89.9589 79.6838C89.9097 79.6905 89.9228 79.9601 89.9819 80.2795C90.041 80.599 90.1231 80.8519 90.1691 80.8452Z" fill="white"/>
<path d="M84.5443 68.0034C84.5806 68.1738 84.6312 68.3408 84.6954 68.5025C84.8005 68.8187 84.9515 69.2779 85.1223 69.8336C85.4703 70.9751 85.9004 72.5724 86.324 74.3461C86.7476 76.1198 87.0727 77.7405 87.273 78.9218C87.378 79.5075 87.447 79.9867 87.4963 80.3195C87.5127 80.4924 87.5423 80.6637 87.5849 80.832C87.5933 80.6575 87.5856 80.4826 87.5619 80.3095C87.5357 79.9767 87.4798 79.4942 87.3945 78.9019C87.2237 77.7138 86.9085 76.0866 86.4915 74.3062C86.0745 72.5258 85.6181 70.9318 85.2372 69.797C85.05 69.228 84.8826 68.7721 84.7578 68.4659C84.6989 68.3062 84.6275 68.1516 84.5443 68.0034Z" fill="white"/>
<path d="M72.786 56.3395C72.8188 56.3794 73.2588 56.0067 73.9057 55.7305C74.5525 55.4543 75.1206 55.3977 75.1173 55.3411C74.6796 55.3188 74.2426 55.397 73.8389 55.5699C73.4352 55.7428 73.0753 56.0058 72.786 56.3395Z" fill="white"/>
<path d="M66.0678 47.0915C66.3972 47.2595 66.7347 47.4105 67.0792 47.5441C67.7063 47.8169 68.56 48.2096 69.4696 48.7221C70.3791 49.2346 71.1737 49.7404 71.7385 50.1298C72.0319 50.3544 72.339 50.56 72.6579 50.7454C72.6579 50.7454 72.589 50.6622 72.4445 50.5357C72.3 50.4093 72.0833 50.2362 71.8075 50.0299C71.0897 49.4908 70.336 49.0026 69.5517 48.569C68.7691 48.1345 67.9584 47.7543 67.1251 47.4309C66.7968 47.3078 66.5439 47.2179 66.3601 47.1614C66.2672 47.1215 66.1684 47.0979 66.0678 47.0915Z" fill="white"/>
<path d="M57.5109 87.0915C58.9248 87.292 60.3521 87.3799 61.7795 87.3544C61.0763 87.2225 60.3636 87.1491 59.6485 87.1348C58.9384 87.0607 58.2234 87.0463 57.5109 87.0915Z" fill="white"/>
<path d="M48.8456 80.3162C48.9245 80.4004 49.0126 80.4753 49.1083 80.5391L49.8537 81.1015C50.4841 81.5707 51.3543 82.2296 52.2999 82.9717C53.2456 83.7138 54.0829 84.4127 54.6903 84.9152L55.4094 85.5108C55.4921 85.592 55.5862 85.6604 55.6885 85.7138C55.6203 85.62 55.5409 85.535 55.4521 85.4609C55.2945 85.3045 55.0614 85.0882 54.7659 84.822C54.1814 84.2929 53.3507 83.584 52.405 82.8253C51.4593 82.0666 50.5761 81.4376 49.9226 80.9917C49.5943 80.7654 49.3316 80.589 49.1444 80.4726C49.0522 80.4071 48.9517 80.3545 48.8456 80.3162Z" fill="white"/>
</g>
<circle cx="82.5" cy="14.5" r="2.5" fill="white"/>
<defs>
<linearGradient id="paint0_linear_67_2090" x1="41.6793" y1="84.589" x2="41.6793" y2="89.7538" gradientUnits="userSpaceOnUse">
<stop stop-color="#FF853A"/>
<stop offset="1" stop-color="#FF2A3F"/>
</linearGradient>
<linearGradient id="paint1_linear_67_2090" x1="41.1966" y1="84.5823" x2="41.1966" y2="89.7505" gradientUnits="userSpaceOnUse">
<stop stop-color="#FF853A"/>
<stop offset="1" stop-color="#FF2A3F"/>
</linearGradient>
<linearGradient id="paint2_linear_67_2090" x1="58.9962" y1="44.0779" x2="58.9962" y2="100.008" gradientUnits="userSpaceOnUse">
<stop stop-color="#FF853A"/>
<stop offset="1" stop-color="#FF2A3F"/>
</linearGradient>
<linearGradient id="paint3_linear_67_2090" x1="58.9939" y1="100.551" x2="58.9939" y2="43.5234" gradientUnits="userSpaceOnUse">
<stop stop-color="white" stop-opacity="0"/>
<stop offset="1" stop-color="white" stop-opacity="0.8"/>
</linearGradient>
<linearGradient id="paint4_linear_67_2090" x1="37.5369" y1="75.2109" x2="37.5369" y2="85.8189" gradientUnits="userSpaceOnUse">
<stop stop-color="#FF853A"/>
<stop offset="1" stop-color="#FF2A3F"/>
</linearGradient>
<linearGradient id="paint5_linear_67_2090" x1="53.9893" y1="78.5756" x2="53.9893" y2="92.5291" gradientUnits="userSpaceOnUse">
<stop stop-color="#FF853A"/>
<stop offset="1" stop-color="#FF2A3F"/>
</linearGradient>
<linearGradient id="paint6_linear_67_2090" x1="36.0004" y1="81.3387" x2="36.0004" y2="87.8935" gradientUnits="userSpaceOnUse">
<stop stop-color="#FF853A"/>
<stop offset="1" stop-color="#FF2A3F"/>
</linearGradient>
<clipPath id="clip0_67_2090">
<rect width="82" height="56" fill="white" transform="matrix(-1 0 0 1 100 44)"/>
</clipPath>
</defs>
</svg>
