<svg width="90" height="90" viewBox="0 0 90 90" fill="none" xmlns="http://www.w3.org/2000/svg">
  <!-- Background Circle -->
  <circle cx="45" cy="45" r="40" fill="#FFF8E1" stroke="#FFC107" stroke-width="2"/>
  
  <!-- Large Gear -->
  <g transform="translate(35, 35)">
    <!-- Gear Teeth -->
    <path d="M 10 0 L 12 0 L 12 3 L 10 3 Z M 17 2 L 19 4 L 17 6 L 15 4 Z M 20 10 L 20 12 L 17 12 L 17 10 Z M 17 17 L 19 19 L 17 21 L 15 19 Z M 10 20 L 12 20 L 12 23 L 10 23 Z M 2 17 L 4 19 L 2 21 L 0 19 Z M 0 10 L 3 10 L 3 12 L 0 12 Z M 2 2 L 4 4 L 2 6 L 0 4 Z" fill="#FFC107"/>
    <!-- Gear Body -->
    <circle cx="10" cy="11.5" r="8" fill="#FFD54F" stroke="#FFC107" stroke-width="1"/>
    <!-- Center Hole -->
    <circle cx="10" cy="11.5" r="3" fill="white" stroke="#FFC107" stroke-width="1"/>
  </g>
  
  <!-- Small Gear -->
  <g transform="translate(50, 25)">
    <!-- Small Gear Teeth -->
    <path d="M 7 0 L 8 0 L 8 2 L 7 2 Z M 12 1 L 13 2 L 12 4 L 11 3 Z M 14 7 L 14 8 L 12 8 L 12 7 Z M 12 12 L 13 13 L 12 15 L 11 14 Z M 7 14 L 8 14 L 8 16 L 7 16 Z M 1 12 L 2 13 L 1 15 L 0 14 Z M 0 7 L 2 7 L 2 8 L 0 8 Z M 1 1 L 2 2 L 1 4 L 0 3 Z" fill="#FF9800"/>
    <!-- Small Gear Body -->
    <circle cx="7" cy="8" r="6" fill="#FFB74D" stroke="#FF9800" stroke-width="1"/>
    <!-- Center Hole -->
    <circle cx="7" cy="8" r="2" fill="white" stroke="#FF9800" stroke-width="1"/>
  </g>
  
  <!-- Wrench -->
  <g transform="translate(25, 55) rotate(-30)">
    <!-- Wrench Handle -->
    <rect x="0" y="2" width="20" height="3" rx="1.5" fill="#607D8B"/>
    <!-- Wrench Head -->
    <rect x="18" y="0" width="8" height="7" rx="1" fill="#607D8B"/>
    <!-- Wrench Opening -->
    <rect x="20" y="1" width="4" height="5" rx="0.5" fill="white"/>
    <rect x="21" y="0" width="2" height="2" fill="white"/>
  </g>
  
  <!-- Screwdriver -->
  <g transform="translate(55, 60) rotate(45)">
    <!-- Handle -->
    <rect x="0" y="1" width="8" height="3" rx="1.5" fill="#F44336"/>
    <!-- Shaft -->
    <rect x="8" y="1.5" width="12" height="2" rx="1" fill="#9E9E9E"/>
    <!-- Tip -->
    <rect x="20" y="2" width="3" height="1" fill="#9E9E9E"/>
  </g>
  
  <!-- Status Indicator -->
  <circle cx="65" cy="25" r="6" fill="#4CAF50"/>
  <path d="M 62 25 L 64 27 L 68 23" stroke="white" stroke-width="2" fill="none" stroke-linecap="round"/>
</svg> 