<svg width="100" height="100" viewBox="0 0 100 100" fill="none" xmlns="http://www.w3.org/2000/svg">
<rect x="12" y="12" width="76" height="76" rx="12" fill="#FFE0CC"/>
<path d="M90 24.4268C93.5899 24.4268 96.5 27.337 96.5 30.9268V92.0245C96.5 95.6143 93.5898 98.5245 90 98.5245H44C40.4102 98.5245 37.5 95.6143 37.5 92.0245V30.9268L37.5088 30.5919C37.6831 27.1577 40.5225 24.4268 44 24.4268H90Z" fill="url(#paint0_linear_67_2069)" stroke="url(#paint1_linear_67_2069)"/>
<path d="M48 32.8293H88V32.8293H48V32.8293Z" stroke="white" stroke-miterlimit="10"/>
<path d="M48 44.6829H88V44.6829H48V44.6829Z" stroke="white" stroke-miterlimit="10"/>
<path d="M48 56.5366H88V56.5366H48V56.5366Z" stroke="white" stroke-miterlimit="10"/>
<path d="M48 68.3903H80V68.3903H48V68.3903Z" stroke="white" stroke-miterlimit="10"/>
<path d="M48 80.2439H70V80.2439H48V80.2439Z" stroke="white" stroke-miterlimit="10"/>
<defs>
<linearGradient id="paint0_linear_67_2069" x1="67" y1="24.9268" x2="67" y2="98.0244" gradientUnits="userSpaceOnUse">
<stop stop-color="#FF853A"/>
<stop offset="1" stop-color="#FF2A3F"/>
</linearGradient>
<linearGradient id="paint1_linear_67_2069" x1="67.0016" y1="98.7333" x2="67.0016" y2="24.2021" gradientUnits="userSpaceOnUse">
<stop stop-color="white" stop-opacity="0"/>
<stop offset="1" stop-color="white" stop-opacity="0.8"/>
</linearGradient>
</defs>
</svg>
